<svg xmlns="http://www.w3.org/2000/svg" viewBox="0 0 778 705"><defs><style>.cls-1{fill:#fff;}.cls-2{fill:#bbbdbf;}.cls-3{fill:#80ce21;}.cls-4{fill:#94fc16;}</style></defs><g id="Layer_2" data-name="Layer 2"><g id="Layer_2-2" data-name="Layer 2"><path class="cls-1" d="M64.5,345a288.5,288.5,0,0,1,1.6-31L31.8,281.7A347.4,347.4,0,0,0,26,345c0,150.7,96.6,278.8,231.3,325.8L241,623.6C136.7,574.3,64.5,468.1,64.5,345Z"/><path class="cls-1" d="M401.2,651.7l-45,38c4.9.2,9.8.3,14.8.3,170,0,311.2-122.9,339.7-284.7L666,438.6C629.2,554.2,526,640.1,401.2,651.7Z"/><path class="cls-1" d="M679.2,317.1l34.6-11.3A344.7,344.7,0,0,0,580.9,71.2l-14,34.9A307.2,307.2,0,0,1,679.2,317.1Z"/><path class="cls-1" d="M372.5,37a306.6,306.6,0,0,1,91.9,14l57.3-16.4A343.2,343.2,0,0,0,371,0C247.9,0,139.9,64.5,78.9,161.4l60-17.2A307.5,307.5,0,0,1,372.5,37Z"/><path class="cls-2" d="M372.5,77h1l90.9-26a308.2,308.2,0,0,0-325.5,93.2l90.5-25.9A267.6,267.6,0,0,1,372.5,77Z"/><path class="cls-2" d="M566.9,106.1l-15.6,39.1a267.4,267.4,0,0,1,89.2,184.5l38.7-12.6A307.2,307.2,0,0,0,566.9,106.1Z"/><path class="cls-2" d="M465.4,597.5l-64.2,54.2C526,640.1,629.2,554.2,666,438.6l-65.4,48.5A269,269,0,0,1,465.4,597.5Z"/><path class="cls-2" d="M104,349.9,66.1,314a288.5,288.5,0,0,0-1.6,31c0,123.1,72.2,229.3,176.5,278.6l-19.2-55.8C151.9,520.2,105.5,440.6,104,349.9Z"/></g><g id="Layer_3" data-name="Layer 3"><polygon class="cls-3" points="185 314 166 377 0 209 559 55 401 439 778 314 300 705 224 490 401 207 185 314"/><polygon class="cls-4" points="5 208 139 246 484 114 559 55 5 208"/><path class="cls-4" d="M491,101,401,202,224,490l92,63Q403.5,327,491,101Z"/><path class="cls-4" d="M316,553,778,314,401,439Z"/></g></g></svg>