<svg xmlns="http://www.w3.org/2000/svg" viewBox="0 0 969.1 352"><defs><style>.cls-1{fill:#fff;}.cls-2{fill:#bbbdbf;}.cls-3{fill:#80ce21;}.cls-4{fill:#94fc16;}</style></defs><g id="Layer_2" data-name="Layer 2"><g id="Layer_3" data-name="Layer 3"><path class="cls-1" d="M612.8,172.3c0-5.3.3-10.4.8-15.5l-17.1-16.2a174.7,174.7,0,0,0-2.9,31.7A172.1,172.1,0,0,0,709.1,334.9L701,311.4A154,154,0,0,1,612.8,172.3Z"/><path class="cls-1" d="M780.9,325.4l-22.4,18.9,7.4.2c84.8,0,155.3-61.3,169.6-142.1L913.1,219A153.9,153.9,0,0,1,780.9,325.4Z"/><path class="cls-1" d="M919.8,158.3l17.2-5.6A172.1,172.1,0,0,0,870.7,35.6l-7,17.4A153.9,153.9,0,0,1,919.8,158.3Z"/><path class="cls-1" d="M766.6,18.5a154.5,154.5,0,0,1,45.9,6.9l28.6-8.1A172.3,172.3,0,0,0,620,80.6L650,72A153.3,153.3,0,0,1,766.6,18.5Z"/><path class="cls-2" d="M766.6,38.4h.5l45.4-13.1A154.4,154.4,0,0,0,650,72l45.1-12.9A133.2,133.2,0,0,1,766.6,38.4Z"/><path class="cls-2" d="M863.7,53l-7.8,19.5a133.7,133.7,0,0,1,44.5,92.1l19.4-6.3A153.9,153.9,0,0,0,863.7,53Z"/><path class="cls-2" d="M813,298.3l-32.1,27.1A153.9,153.9,0,0,0,913.1,219l-32.6,24.2A133.9,133.9,0,0,1,813,298.3Z"/><path class="cls-2" d="M632.6,174.7l-19-17.9c-.5,5.1-.8,10.2-.8,15.5A154,154,0,0,0,701,311.4l-9.6-27.9A133.6,133.6,0,0,1,632.6,174.7Z"/><polygon class="cls-3" points="673 156.8 663.5 188.2 580.6 104.4 859.7 27.5 780.8 219.2 969.1 156.8 730.4 352 692.5 244.7 780.8 103.4 673 156.8"/><polygon class="cls-4" points="583.1 103.9 650 122.8 822.3 56.9 859.7 27.5 583.1 103.9"/><path class="cls-4" d="M825.8,50.4l-45,50.5L692.5,244.7l45.9,31.4Q782.1,163.3,825.8,50.4Z"/><path class="cls-4" d="M738.4,276.1,969.1,156.8,780.8,219.2Z"/><path class="cls-1" d="M218.9,273.4a54.5,54.5,0,0,1-2.5,15.8,46.4,46.4,0,0,1-8.2,15.5,45.8,45.8,0,0,1-14.9,12q-9.2,4.8-22.5,4.8H20a20.6,20.6,0,0,1-7.9-1.5,18.7,18.7,0,0,1-6.4-4.2,19.3,19.3,0,0,1-4.2-6.3,21.1,21.1,0,0,1-1.5-8v-179a20.1,20.1,0,0,1,1.5-7.8,18.7,18.7,0,0,1,4.2-6.4,17.6,17.6,0,0,1,6.4-4.3,20.6,20.6,0,0,1,7.9-1.6H152.9a54.8,54.8,0,0,1,15.8,2.6,49.3,49.3,0,0,1,15.6,8.4,44.8,44.8,0,0,1,12.1,14.9c3.2,6.1,4.8,13.6,4.8,22.4v7.5a83.7,83.7,0,0,1-3.5,22.7,73.5,73.5,0,0,1-11.3,23,69.5,69.5,0,0,1,12.6,9.9,63.4,63.4,0,0,1,10.3,13.5,68.1,68.1,0,0,1,7,17.2,79.2,79.2,0,0,1,2.6,21.3Zm-39.7-7.6a38.4,38.4,0,0,0-2.4-14,30.9,30.9,0,0,0-6.9-10.6,29.7,29.7,0,0,0-10.7-6.8,39.3,39.3,0,0,0-14.1-2.4H55.6V192h71.7a38.8,38.8,0,0,0,14-2.4,28.9,28.9,0,0,0,10.7-6.8,29.3,29.3,0,0,0,6.8-10.6,38.4,38.4,0,0,0,2.4-14v-7.5c0-5.7-2.8-8.5-8.3-8.5H39.7V281.8H173.4a5.9,5.9,0,0,0,2.8-1,5.7,5.7,0,0,0,2.1-2.6,11.5,11.5,0,0,0,.9-5Z"/><path class="cls-1" d="M293.5,321.5H253.8V102.4h39.7Z"/><path class="cls-1" d="M556.1,301.5a21.1,21.1,0,0,1-1.5,8A19.3,19.3,0,0,1,544.1,320a21.1,21.1,0,0,1-8,1.5H392.8a56,56,0,0,1-11.8-1.3,59.4,59.4,0,0,1-12.6-4,57.8,57.8,0,0,1-11.8-7.1,46,46,0,0,1-10-10.6,54.4,54.4,0,0,1-7-14.3,62,62,0,0,1-2.6-18.4V158.2a63.5,63.5,0,0,1,1.3-11.8,66.2,66.2,0,0,1,4.1-12.6,54.1,54.1,0,0,1,7.2-11.8,48.2,48.2,0,0,1,10.6-10,54.4,54.4,0,0,1,14.3-7,60.8,60.8,0,0,1,18.3-2.6H554.3v39.8H392.8c-5.2,0-9.2,1.3-11.9,4.1s-4.1,6.8-4.1,12.2V265.8c0,5.1,1.4,9,4.2,11.8s6.7,4.2,11.8,4.2H516.4V232H410.7V192H536.1a19.4,19.4,0,0,1,8,1.6,21.3,21.3,0,0,1,6.3,4.3,20.9,20.9,0,0,1,4.2,6.4,19.6,19.6,0,0,1,1.5,7.7Z"/></g></g></svg>