<?xml version="1.0" encoding="utf-8"?>
<svg viewBox="0 0 778 705" xmlns="http://www.w3.org/2000/svg">
  <defs>
    <style>.cls-1{fill:#fff;}.cls-2{fill:#bbbdbf;}.cls-3{fill:#80ce21;}.cls-4{fill:#94fc16;}</style>
    <linearGradient gradientUnits="userSpaceOnUse" x1="547" y1="314" x2="547" y2="553" id="gradient-3">
      <stop offset="0" style="stop-color: rgba(21, 174, 100, 1)"/>
      <stop offset="1" style="stop-color: rgba(10, 83, 48, 1)"/>
    </linearGradient>
  </defs>
  <path class="cls-1" d="M 64.5 345 C 64.477 334.645 65.011 324.297 66.1 314 L 31.8 281.7 C 27.936 302.578 25.995 323.767 26 345 C 26 495.7 122.6 623.8 257.3 670.8 L 241 623.6 C 136.7 574.3 64.5 468.1 64.5 345 Z"/>
  <path class="cls-1" d="M 401.2 651.7 L 356.2 689.7 C 361.1 689.9 366 690 371 690 C 541 690 682.2 567.1 710.7 405.3 L 666 438.6 C 629.2 554.2 526 640.1 401.2 651.7 Z"/>
  <path class="cls-1" d="M 679.2 317.1 L 713.8 305.8 C 703.191 212.799 655.216 128.112 580.9 71.2 L 566.9 106.1 C 631.283 158.389 671.786 234.491 679.2 317.1 Z"/>
  <path class="cls-1" d="M 372.5 37 C 403.667 36.969 434.656 41.69 464.4 51 L 521.7 34.6 C 474.752 11.754 423.211 -0.08 371 0 C 247.9 0 139.9 64.5 78.9 161.4 L 138.9 144.2 C 197.383 76.077 282.717 36.917 372.5 37 Z"/>
  <path class="cls-2" d="M 372.5 77 L 373.5 77 L 464.4 51 C 347.023 14.351 219.092 50.981 138.9 144.2 L 229.4 118.3 C 272.231 91.269 321.853 76.947 372.5 77 Z"/>
  <path class="cls-2" d="M 566.9 106.1 L 551.3 145.2 C 604.355 192.414 636.448 258.795 640.5 329.7 L 679.2 317.1 C 671.786 234.491 631.283 158.389 566.9 106.1 Z"/>
  <path class="cls-2" d="M 465.4 597.5 L 401.2 651.7 C 526 640.1 629.2 554.2 666 438.6 L 600.6 487.1 C 569.057 537.905 521.485 576.751 465.4 597.5 Z"/>
  <path class="cls-2" d="M 104 349.9 L 66.1 314 C 65.011 324.297 64.477 334.645 64.5 345 C 64.5 468.1 136.7 574.3 241 623.6 L 221.8 567.8 C 151.9 520.2 105.5 440.6 104 349.9 Z"/>
  <g id="Layer_2" data-name="Layer 2" transform="matrix(1, 0, 0, 1, -2.154315, 0.736605)">
    <g id="Layer_3" data-name="Layer 3">
      <polygon class="cls-3" points="185 314 166 377 0 209 559 55 401 439 778 314 300 705 224 490 401 207 185 314" style="fill: rgb(0, 149, 77);"/>
      <polygon class="cls-4" points="5 208 139 246 484 114 559 55 5 208" style="fill: rgb(49, 198, 126);"/>
      <path class="cls-4" d="M491,101,401,202,224,490l92,63Q403.5,327,491,101Z" style="fill: rgb(24, 164, 96);"/>
      <path class="cls-4" d="M316,553,778,314,401,439Z" style="fill: url(#gradient-3);"/>
    </g>
  </g>
</svg>