<svg xmlns="http://www.w3.org/2000/svg" viewBox="0 0 60 62">
  <g fill="none" fill-rule="nonzero">
    <g fill="#FFA000">
      <path d="M43.997 31a1.292 1.292 0 010-2.583c7.13-.009 12.909-5.787 12.917-12.917V5.167H45.29a1.292 1.292 0 010-2.584h12.917c.713 0 1.291.579 1.291 1.292V15.5c-.01 8.556-6.943 15.49-15.5 15.5zM15.58 31C7.026 30.99.09 24.056.08 15.5V3.875c0-.713.58-1.292 1.292-1.292H14.29a1.292 1.292 0 010 2.584H2.664V15.5c.009 7.13 5.787 12.908 12.917 12.917a1.292 1.292 0 010 2.583zM37.867 51.48l-.695-.712c-2.707-2.785-3.451-10.571-3.508-13.335a1.292 1.292 0 00-1.292-1.266h-5.166c-.703 0-1.277.56-1.292 1.263-.054 2.764-.798 10.545-3.508 13.335l-.695.713c-3.547 3.65-6.13 6.288-6.13 9.23 0 .714.578 1.292 1.291 1.292h25.834c.713 0 1.291-.578 1.291-1.292 0-2.942-2.583-5.58-6.13-9.227z"/>
    </g>
    <path fill="#FFC107" d="M45.29 0h-31c-.714 0-1.293.578-1.293 1.292v20.666c.121 9.224 7.569 16.67 16.792 16.792 9.223-.121 16.67-7.568 16.792-16.792V1.292C46.58.578 46.002 0 45.289 0z"/>
  </g>
</svg>
