<svg xmlns="http://www.w3.org/2000/svg" xmlns:xlink="http://www.w3.org/1999/xlink" viewBox="0 0 250 250"><defs><style>.cls-1{fill:none;}.cls-2{isolation:isolate;}.cls-3{clip-path:url(#clip-path);}.cls-4{fill:url(#GradientFill_38);}.cls-10,.cls-11,.cls-12,.cls-13,.cls-14,.cls-15,.cls-16,.cls-17,.cls-18,.cls-24,.cls-25,.cls-26,.cls-27,.cls-28,.cls-29,.cls-30,.cls-31,.cls-32,.cls-33,.cls-34,.cls-35,.cls-36,.cls-37,.cls-38,.cls-39,.cls-40,.cls-41,.cls-42,.cls-43,.cls-44,.cls-45,.cls-46,.cls-5,.cls-6,.cls-7,.cls-8,.cls-9{fill-rule:evenodd;}.cls-5{fill:url(#GradientFill_37);}.cls-6{fill:url(#GradientFill_36);}.cls-7{fill:url(#GradientFill_35);}.cls-8{fill:url(#GradientFill_34);}.cls-9{fill:url(#GradientFill_33);}.cls-10{fill:url(#GradientFill_30);}.cls-11{fill:url(#GradientFill_32);}.cls-12{fill:url(#GradientFill_23);}.cls-13{fill:url(#GradientFill_23-2);}.cls-14{fill:url(#GradientFill_23-3);}.cls-15{fill:url(#GradientFill_31);}.cls-16{fill:url(#GradientFill_21);}.cls-17{fill:url(#GradientFill_21-2);}.cls-18{fill:url(#GradientFill_30-2);}.cls-19{clip-path:url(#clip-path-2);}.cls-20{fill:#fff;}.cls-21{fill:#bbbdbf;}.cls-22{fill:#5e9900;}.cls-23{fill:#94fc16;}.cls-24{fill:url(#GradientFill_28);}.cls-25{fill:url(#GradientFill_27);}.cls-26{fill:url(#GradientFill_25);}.cls-27{fill:url(#GradientFill_26);}.cls-28{fill:url(#GradientFill_24);}.cls-29{fill:url(#GradientFill_25-2);}.cls-30{fill:url(#GradientFill_24-2);}.cls-31{fill:url(#GradientFill_23-4);}.cls-32{fill:url(#GradientFill_23-5);}.cls-33{fill:url(#GradientFill_23-6);}.cls-34{fill:url(#GradientFill_23-7);}.cls-35{fill:url(#GradientFill_23-8);}.cls-36{fill:url(#GradientFill_20);}.cls-37{fill:url(#GradientFill_20-2);}.cls-38{fill:url(#GradientFill_20-3);}.cls-39{fill:url(#GradientFill_22);}.cls-40{fill:url(#GradientFill_20-4);}.cls-41{fill:url(#GradientFill_20-5);}.cls-42{fill:url(#GradientFill_21-3);}.cls-43{fill:url(#GradientFill_21-4);}.cls-44{fill:url(#GradientFill_21-5);}.cls-45{fill:url(#GradientFill_21-6);}.cls-46{fill:url(#GradientFill_20-6);}.cls-47{fill:#192b00;}.cls-48{fill:#e2e2e2;}.cls-49{fill:#eaeaea;}.cls-50,.cls-51,.cls-52,.cls-53{font-size:41.81px;fill:#d60000;font-family:RifficFree-Bold, Riffic Free;font-weight:700;}.cls-51{letter-spacing:0.15em;}.cls-52{letter-spacing:-0.01em;}.cls-53{letter-spacing:0em;}.cls-54{opacity:0.25;mix-blend-mode:screen;}.cls-55{fill:url(#linear-gradient);}.cls-56{fill:url(#linear-gradient-2);}.cls-57{fill:url(#linear-gradient-3);}.cls-58{fill:url(#linear-gradient-4);}</style><clipPath id="clip-path"><rect class="cls-1" width="250" height="250"/></clipPath><radialGradient id="GradientFill_38" cx="125" cy="125" r="162.63" gradientUnits="userSpaceOnUse"><stop offset="0" stop-color="#fff200"/><stop offset="0.25" stop-color="#97ce00"/><stop offset="1"/></radialGradient><radialGradient id="GradientFill_37" cx="125" cy="122.5" r="164.24" gradientTransform="translate(0)" gradientUnits="userSpaceOnUse"><stop offset="0" stop-color="#fff200"/><stop offset="0.09" stop-color="#97ce00"/><stop offset="1"/></radialGradient><radialGradient id="GradientFill_36" cx="117.5" cy="104.96" r="196.45" gradientTransform="translate(0 0.1)" gradientUnits="userSpaceOnUse"><stop offset="0" stop-color="#fff"/><stop offset="0.28" stop-color="#f4fcf8"/><stop offset="0.57" stop-color="#97ce00"/><stop offset="1"/></radialGradient><radialGradient id="GradientFill_35" cx="142.42" cy="155.25" r="64" gradientUnits="userSpaceOnUse"><stop offset="0" stop-color="#f57100"/><stop offset="0.31" stop-color="#ef2300"/><stop offset="0.51" stop-color="#b7000a"/><stop offset="0.74" stop-color="#4e0000"/><stop offset="1" stop-color="#4e0000"/></radialGradient><radialGradient id="GradientFill_34" cx="160.02" cy="165.97" r="31.63" gradientUnits="userSpaceOnUse"><stop offset="0" stop-color="#ed0009"/><stop offset="0.45" stop-color="#8c0000"/><stop offset="1" stop-color="#760000"/></radialGradient><radialGradient id="GradientFill_33" cx="154.13" cy="177.02" r="32.26" gradientUnits="userSpaceOnUse"><stop offset="0" stop-color="#fff"/><stop offset="0.43" stop-color="#c7000b"/><stop offset="1" stop-color="#870003"/></radialGradient><radialGradient id="GradientFill_30" cx="126.11" cy="149.64" r="30.67" gradientUnits="userSpaceOnUse"><stop offset="0" stop-color="#fff"/><stop offset="0.58" stop-color="#dc1400"/><stop offset="1" stop-color="#870003"/></radialGradient><radialGradient id="GradientFill_32" cx="127.12" cy="132.96" r="10.18" gradientUnits="userSpaceOnUse"><stop offset="0" stop-color="#fff"/><stop offset="0.62" stop-color="#f9fbfb"/><stop offset="1"/></radialGradient><radialGradient id="GradientFill_23" cx="124.75" cy="142.21" r="8.15" gradientUnits="userSpaceOnUse"><stop offset="0" stop-color="#fff"/><stop offset="0.54" stop-color="#f9fbfb"/><stop offset="1"/></radialGradient><radialGradient id="GradientFill_23-2" cx="134.36" cy="155.28" r="9.17" xlink:href="#GradientFill_23"/><radialGradient id="GradientFill_23-3" cx="126.01" cy="161.3" r="7.64" xlink:href="#GradientFill_23"/><radialGradient id="GradientFill_31" cx="162.16" cy="132.58" r="37.27" gradientUnits="userSpaceOnUse"><stop offset="0" stop-color="#ed0009"/><stop offset="0.35" stop-color="#ed0009"/><stop offset="1" stop-color="#760000"/></radialGradient><linearGradient id="GradientFill_21" x1="169.55" y1="162.93" x2="169.23" y2="171.97" gradientUnits="userSpaceOnUse"><stop offset="0" stop-color="#404042"/><stop offset="0.45" stop-color="#f9fbfb"/><stop offset="1" stop-color="#fff"/></linearGradient><linearGradient id="GradientFill_21-2" x1="146.65" y1="173.56" x2="145.51" y2="175.13" xlink:href="#GradientFill_21"/><radialGradient id="GradientFill_30-2" cx="159.79" cy="147.13" r="39.43" xlink:href="#GradientFill_30"/><clipPath id="clip-path-2"><polygon class="cls-1" points="147 149.8 145.2 115.4 181.1 120.7 182.9 155.1 147 149.8"/></clipPath><radialGradient id="GradientFill_28" cx="118.15" cy="181.8" r="68.35" gradientUnits="userSpaceOnUse"><stop offset="0" stop-color="#f57100"/><stop offset="0.31" stop-color="#ef2300"/><stop offset="0.56" stop-color="#b7000a"/><stop offset="0.88" stop-color="#4e0000"/><stop offset="1" stop-color="#4e0000"/></radialGradient><radialGradient id="GradientFill_27" cx="85.85" cy="189.75" r="36.72" gradientUnits="userSpaceOnUse"><stop offset="0" stop-color="#ed0009"/><stop offset="1" stop-color="#760000"/></radialGradient><radialGradient id="GradientFill_25" cx="124.99" cy="188.65" r="35.33" gradientUnits="userSpaceOnUse"><stop offset="0" stop-color="#ed0009"/><stop offset="0.4" stop-color="#ed0009"/><stop offset="1" stop-color="#760000"/></radialGradient><radialGradient id="GradientFill_26" cx="100.89" cy="135.6" r="60.99" gradientUnits="userSpaceOnUse"><stop offset="0" stop-color="#f57100"/><stop offset="0.4" stop-color="#f57100"/><stop offset="1" stop-color="#d20800"/></radialGradient><radialGradient id="GradientFill_24" cx="148.22" cy="200.87" r="50.01" gradientUnits="userSpaceOnUse"><stop offset="0" stop-color="#fff"/><stop offset="0.59" stop-color="#dc1400"/><stop offset="1" stop-color="#870003"/></radialGradient><radialGradient id="GradientFill_25-2" cx="94.1" cy="130.42" r="56.76" xlink:href="#GradientFill_25"/><radialGradient id="GradientFill_24-2" cx="97.6" cy="169.13" r="52.56" xlink:href="#GradientFill_24"/><radialGradient id="GradientFill_23-4" cx="144.73" cy="173.41" r="12.62" xlink:href="#GradientFill_23"/><radialGradient id="GradientFill_23-5" cx="146.3" cy="186.79" r="9.4" xlink:href="#GradientFill_23"/><radialGradient id="GradientFill_23-6" cx="130.75" cy="196.82" r="11.98" xlink:href="#GradientFill_23"/><radialGradient id="GradientFill_23-7" cx="135.18" cy="207.81" r="10.11" xlink:href="#GradientFill_23"/><radialGradient id="GradientFill_23-8" cx="139.86" cy="192.04" r="11.49" xlink:href="#GradientFill_23"/><radialGradient id="GradientFill_20" cx="111.33" cy="148.65" r="12.16" gradientUnits="userSpaceOnUse"><stop offset="0" stop-color="#fff"/><stop offset="0.55" stop-color="#f9fbfb"/><stop offset="1"/></radialGradient><radialGradient id="GradientFill_20-2" cx="98.26" cy="143.51" r="11.16" xlink:href="#GradientFill_20"/><radialGradient id="GradientFill_20-3" cx="106.85" cy="178.03" r="14.05" xlink:href="#GradientFill_20"/><radialGradient id="GradientFill_22" cx="75.45" cy="213.93" r="51.14" gradientUnits="userSpaceOnUse"><stop offset="0" stop-color="#fff"/><stop offset="0.53" stop-color="#dc000d"/><stop offset="1" stop-color="#870003"/></radialGradient><radialGradient id="GradientFill_20-4" cx="92.23" cy="170.99" r="12.85" xlink:href="#GradientFill_20"/><radialGradient id="GradientFill_20-5" cx="79.65" cy="164.41" r="11.87" xlink:href="#GradientFill_20"/><linearGradient id="GradientFill_21-3" x1="101.54" y1="197.76" x2="97.6" y2="204.58" xlink:href="#GradientFill_21"/><linearGradient id="GradientFill_21-4" x1="73.13" y1="182.01" x2="69.25" y2="188.22" xlink:href="#GradientFill_21"/><linearGradient id="GradientFill_21-5" x1="108.59" y1="211.22" x2="104.3" y2="217.58" xlink:href="#GradientFill_21"/><linearGradient id="GradientFill_21-6" x1="80.88" y1="195.55" x2="77.13" y2="202.05" xlink:href="#GradientFill_21"/><radialGradient id="GradientFill_20-6" cx="126.16" cy="153.84" r="13.15" xlink:href="#GradientFill_20"/><linearGradient id="linear-gradient" x1="60.26" y1="36.32" x2="124.43" y2="121.49" gradientUnits="userSpaceOnUse"><stop offset="0.06" stop-color="#fff"/><stop offset="0.13" stop-color="#fff"/><stop offset="0.13"/><stop offset="0.22"/><stop offset="0.22" stop-color="#fff"/><stop offset="0.25" stop-color="#fff"/><stop offset="0.25"/><stop offset="0.27"/><stop offset="0.28" stop-color="#fff"/><stop offset="0.42" stop-color="#fff"/><stop offset="0.42"/><stop offset="0.48"/><stop offset="0.48" stop-color="#fff"/><stop offset="0.53" stop-color="#fff"/><stop offset="0.53"/><stop offset="0.58"/><stop offset="0.58" stop-color="#fff"/><stop offset="0.73" stop-color="#fff"/><stop offset="0.73"/><stop offset="0.76"/><stop offset="0.76" stop-color="#fff"/><stop offset="0.79" stop-color="#fff"/><stop offset="0.8"/><stop offset="0.86"/><stop offset="0.86" stop-color="#fff"/></linearGradient><linearGradient id="linear-gradient-2" x1="81.89" y1="20.02" x2="146.07" y2="105.18" xlink:href="#linear-gradient"/><linearGradient id="linear-gradient-3" x1="100.99" y1="5.62" x2="165.17" y2="90.79" xlink:href="#linear-gradient"/><linearGradient id="linear-gradient-4" x1="123.37" y1="-11.24" x2="187.55" y2="73.92" xlink:href="#linear-gradient"/></defs><g class="cls-2"><g id="Layer_1" data-name="Layer 1"><g class="cls-3"><rect class="cls-4" width="250" height="250"/><path class="cls-5" d="M125.4,124.9h0C144.5,75.3,201,68.7,242.5,92.6c2.6,1.5,5.1,3.1,7.5,4.7V113l-2.5-2.1c-37.9-31.2-95.2-32.9-122,13.9h0c41.3-40.3,96.4-21.5,124.5,21.2v13c-23.9-48-78.8-71.8-124.5-34.2,0,0,6.4-4.8,8.6-6.2,47-29.2,97.6,3.8,115.9,49.3v2.7c-19.6-51.1-73.5-82.9-124.5-45.8h0c.2.1,8.1-5.3,8.8-5.7,49.3-27.7,99.3,9.4,114.4,57.1.5,1.5.9,2.9,1.3,4.3v16a115.6,115.6,0,0,0-15.8-44.1c-21.1-34.6-61.4-52.6-99.6-33-.7.4-9.2,5.3-9.1,5.4h0c24.6-10.1,45.4-13.4,69.1.9,44,26.4,51.6,78.7,38.1,124.2h-7.1a119,119,0,0,0,2.7-68.4c-10.6-41.7-47.8-72.6-92.3-60.1-3.5,1-7.2,2.1-10.5,3.4h0s5.5-1.7,10.8-2.9c53.7-12.9,90.8,34.5,91.9,83.7a129,129,0,0,1-6.8,44.3h-2.3a121.5,121.5,0,0,0,5.8-57.1c-5.8-44.1-41.1-80.6-88.4-70.7-.9.2-10.9,2.4-11,2.7h0c1.1.5,9.8-1.8,11.4-2.1,49.8-7.7,82.7,34.2,84.4,80.1a120.6,120.6,0,0,1-7.7,47.1h-2.9a132.1,132.1,0,0,0,6.5-23.2c9-46.7-13.9-101.3-67.3-104.5-6.7-.4-18.2.2-24.4,2.6h0l12.1-1.2c54.3-3.8,82.8,47.7,76,95.6a130.6,130.6,0,0,1-8.1,30.7h-8.4c17.5-37.3,16.9-82.6-17.8-111.5-12-9.9-25.3-13.5-40.8-13.7h-13c2.5,1.1,10.6.3,13.5.5,53,3,72.9,55.9,62.4,102a96.5,96.5,0,0,1-7.5,20.6c-.3.7-.7,1.3-1,2h-7.5c11.9-21.6,16.6-46.6,9.8-73s-27.1-46.6-56.1-50.5c-1.5-.2-20.4-3.3-10.3-.6,18.2,5,31.8,7,44.8,22.4,25.9,30.7,20,70.4.2,101.7h-5.2c23.6-34.2,27.7-82.8-8.1-111-10.9-8.6-22.5-9.4-35-14.1,13.4,6.1,25.7,6.8,37.3,17.5,31.1,28.6,25.5,75.7,2.5,107.6h-5.7a119.1,119.1,0,0,0,10.8-17.2c20-38.6,11.2-88.8-34.4-103.6l-10.5-4.3h0c28.2,12.2,47.2,29.8,47.8,61.9.5,25.6-9.4,46.7-25,63.2H137.5a105,105,0,0,0,18.8-23.6c19.9-33.6,15-76.2-22.1-95.6l-8.7-5.9c1.7,4.4,12.1,10.2,15.6,13.7,28.3,28.6,18.5,70.6-7.8,96.4a110.8,110.8,0,0,1-19,15H98.7a94.2,94.2,0,0,0,43.4-36.9c17.2-27,15-58.6-9.8-80.4-.6-.5-6.8-7.8-6.8-7.8,1,2.7,4.4,6.1,6.5,8.1,38.2,37,17.4,89.5-27.5,112.3A107.1,107.1,0,0,1,94.1,250H58.6a108,108,0,0,0,54.5-18.2c33.6-22.6,48.3-65.8,18.5-98.4-.6-.6-6.1-8.4-6.1-8.4,5.8,13.9,14.1,22.8,14.1,38.7.1,30.8-21.9,53.4-49.6,63.6-30.8,11.3-62,7.8-90-4.8v-9.2c32.3,16.2,69.1,19.9,103.2-.2,28.1-16.5,41.2-47,26.4-77.7-.5-1-4.1-10.3-4.1-10.3,2.1,11.5,6.7,21.2,5,33.1-7.5,54-72.1,63.2-114.2,46.9A142.9,142.9,0,0,1,0,197.5v-6.4A116.9,116.9,0,0,0,54.3,207c39.9,1.8,81.7-24.8,73.3-69.8-.2-1-2.1-11.9-2.1-11.9,1.9,17.2,5.9,29.4-2.8,45.6-17.5,32.5-56.1,40-89.4,31.3A127.1,127.1,0,0,1,0,188.3v-7.5A142,142,0,0,0,18.9,191c36.5,16.2,87.3,12.4,104.7-29.2,5.1-12.3,2.6-22.9,1.9-35.9.4,18.8,2.1,32.3-10.7,47.4-30,35.5-80.4,27.2-114.8,3.2v-8.8c27.4,21.7,63.2,31.9,96.6,14.9,17.4-8.8,27.2-23.6,28.6-43.3.2-3.9,1.2-10.8.2-14.4ZM1.6,250H43.7A152.3,152.3,0,0,1,0,240.4v9.1l1.6.5ZM246,250h4V230.6a145.2,145.2,0,0,1-4,19.4ZM125.4,124.9c-17.7-37,4.2-75,37.6-92.6,28.6-15.1,58.6-16.9,87-9.6V10.2c-34.3-7.6-70.1-3.5-101.1,19.2s-46.1,62-23.5,95.5C105.5,81.4,138.7,40.1,179,26.7a125,125,0,0,1,71-2.5v5.4c-25-6.8-51.6-6.3-78.2,4.6C136.2,48.9,110.4,85.7,125.4,124.9Zm0,0c-29.7-29.2-19-73.1,7.8-99.5A117.3,117.3,0,0,1,171.6,0H156.3a120.8,120.8,0,0,0-29,23.1C101.1,51.3,92.2,97.6,125.4,124.9Zm0,0c-24.2-32.5-9.5-73.4,19.6-96.4C176.4,3.6,213.9-1.4,250,6.3V0H188.2a115.7,115.7,0,0,0-50,26.9C110.5,51.8,98.2,94.3,125.4,124.9Zm0,0a96.7,96.7,0,0,1-5.3,9.5c-22.4,34.1-66.1,27.3-93.3,3.7A112.7,112.7,0,0,1,0,103.9v14.9c16.4,26.4,41.8,45.6,75.9,44.5C102.4,162.5,115.3,148,125.4,124.9Zm0,0C101.6,111.4,93,86,97.3,60c3.7-22.7,15.3-41.1,32.6-56l4.9-4h-8.7a110.2,110.2,0,0,0-22,28.2C86,61.1,87.3,106.8,125.4,124.9c-17.8-6.5-29.6-19.1-34.6-37.2C81.3,54,94.2,23,116.7,0h1.1A112.1,112.1,0,0,0,93.1,40.9C82,73.1,90.5,111.5,125.4,124.9Zm0,0c-12.9-.6-23.7-4.3-33.2-13.2C59.8,81.1,67.2,33.8,89.8,0H80.5A111.7,111.7,0,0,0,64.8,56.3C64.2,91.4,86.2,127.2,125.4,124.9Zm0,0c-7.3-46.3,32.1-78.4,74.3-82.4A124.4,124.4,0,0,1,250,47.8V52a138.8,138.8,0,0,0-25.8-5.9c-44.6-6-94.9,16.6-99.3,66.6a62,62,0,0,0,.5,12.2c2-47.9,47-72.3,90.3-67.7A129.7,129.7,0,0,1,250,65.7V55.4a131,131,0,0,0-19.1-5.3c-45.3-9.3-99,10.9-105.6,62.3A65.2,65.2,0,0,0,125.4,124.9Zm0,0C89.4,157.4,45,133,27.1,94.5,12.6,63.4,13.7,30.5,24.3,0h5.8c-10.1,27.7-12,57.8-.7,87.1,15,39.3,57.9,67.9,96,37.8-26.2,25-59.9,19.9-83.6-5.3C10.2,86.1,8.4,40.9,22.3,0H15.9C4.9,34.3,5.1,71.2,24.2,104.2,46,141.7,92.2,160.9,125.4,124.9Zm0,0c-37.4,42.5-90,12-108.8-31.7C3.4,62.5,4.1,30.3,13.7,0H5.6A169.7,169.7,0,0,0,0,30.9V59.6c3.2,33.9,18.4,65.2,51.1,82.7C79.6,157.4,106.5,150.8,125.4,124.9Zm0,0c4.9-13.9,11.9-24.9,23.9-33.3C181.6,69,219.7,74.4,250,94.1V86.8a149.3,149.3,0,0,0-15.6-7.4C191.4,62.3,138.7,75.6,125.4,124.9Zm0,0c-25.9-4.7-42-24.2-45.8-49.3C75.1,46.6,84,20.8,100.3,0H91.6A109.7,109.7,0,0,0,72.9,54.7C70.6,88.1,88.8,122.1,125.4,124.9Zm0,0c-36.8,13-67.1-14.6-75.7-48.7C42.8,48.7,46.8,22.9,57.8,0H49.7c-9.9,22.7-13.5,47.8-7.3,74C51.2,111.4,85.7,143.5,125.4,124.9Zm0,0c-3.2,12.7-5,23.4-14.5,33-32.7,33-83,15.2-110.7-14.6,0-.1-.1-.1-.2-.2v11c28.1,25.8,68,39.6,102.6,16.4C120,158.9,122.2,144.5,125.4,124.9Z"/><path class="cls-6" d="M124.3,124.7h0Zm1.3,0h.2a113.7,113.7,0,0,1,8.9-9.6c27.5-22.5,61.6-17.5,88.9,2.5A106.8,106.8,0,0,1,250,150.3v-1.1c-12.1-22.9-31.4-40.8-58.7-48-26.4-4.9-48.5,2.6-65.5,23.3,7-11.6,15.6-19.4,28-24.9,26.3-9.4,51.4-2,72.8,14.8A106.1,106.1,0,0,1,250,143.7v-2.1c-11.7-20.4-28.8-36.2-52.5-44.1-28.9-7.4-56.2.6-71.7,27h0c13.8-28.6,42-38.7,72.4-33.1A96.2,96.2,0,0,1,250,124.9v.9a116.2,116.2,0,0,0-20-19.6c-27.5-18.4-61.3-23.5-88.8-2.3a65.8,65.8,0,0,0-15.4,20.5l-.2-.3v-.3c6.6-36.9,37.2-56.6,73.1-59.2a115,115,0,0,1,47.7,9.9l3.6,2V74.8a99.2,99.2,0,0,0-12.1-5,99.3,99.3,0,0,0-61.5-6.3c-28.7,8.2-50.8,29.1-50.8,60.2v.3c-.6-1.4-1.1-2.8-1.6-4.1.3,1.2.7,2.4,1.1,3.6l.4.7v.4c-.1-.4-.3-.7-.4-1.1l.4.7V124a56.2,56.2,0,0,1-1.9-5.3,56.4,56.4,0,0,1-1.7-14c.7-23.4,16.8-42,38.2-51.6,30.1-13.5,61.9-9.3,89.8,5.5V57.3l-4.1-1.9c-32.8-14.6-69.8-17-99.6,4.9C135.7,68.1,127.8,78.5,124,90a72,72,0,0,1,8.5-18.9C147,51,167,40.5,191.1,35.8a126.5,126.5,0,0,1,53.7,4.4l5.2,1.9v-.8l-4.4-1.5c-5-1.8-10-3.4-15-4.9-35-7.8-71.1-2.8-97,23.7-16,18.6-22.7,43.4-8.5,64.9.1.4.3.7.4,1.1h0c-13.9-10.4-19.8-24.8-20.4-41.9,1.3-28.4,17.5-50,40.3-65.7a127.4,127.4,0,0,1,46-17H179.7C150,7.7,124.2,24.8,109.9,54c-10.2,25.2-8.3,54.1,15.6,70.6v.2h-1.1a60.6,60.6,0,0,1-11-2.6C82.9,109.2,74.7,76.8,79.8,46.5a113.4,113.4,0,0,1,3.6-12.1A127.4,127.4,0,0,1,101.3,3.3l3-3.3h-.5a122.4,122.4,0,0,0-10,12.8A118.8,118.8,0,0,1,103,0h-1.6C89.3,14.7,80.9,31.9,78.1,51.4a94.5,94.5,0,0,0-1.2,21.4c3.4,26.6,19,50.1,47.4,51.9h1.1c-12,3.9-22.3,3.5-33.9-1.4-30-15.7-37.6-49.6-33-80.9A127.4,127.4,0,0,1,75.9,0h-.8C57.3,28.7,49.8,62.3,63.7,94.9c12.3,24,34.6,39.1,61.7,29.9h0a72.6,72.6,0,0,1-9.3,6.7,44.6,44.6,0,0,1-15.6,4.8c-14.3.5-27.9-8-37.1-20.3-16.9-22.7-18-50.4-9.9-76.8A118.8,118.8,0,0,1,74,0h-.7c-.9,1.1-1.7,2.2-2.5,3.4C52.3,29.5,43,59.6,51.1,91.2c5.8,22.7,22.1,44.3,46.8,45.5-19.6.9-37.5-11.8-49.4-28.8-18-30.1-17.1-63.5-5.8-95.8C44.4,8,46.3,3.9,48.3,0h-.7a134.1,134.1,0,0,0-14,57.6C35,90.5,49,123.7,82.2,135.2a50.9,50.9,0,0,0,17.9,1.5h1.2c10.2-.3,16.9-5.1,24.1-11.8h.2ZM249.5,0h.5V2.9C245.1,1.7,240.3.7,235.4,0ZM125.6,124.7Zm0,0h-.1v-.2Zm-.1-.1v.2h0v-.2Zm0,0Zm0,0h0v-.4h0v.4h-.1Zm.1.2Zm0,0Zm0,0Zm-.1,0Zm0,0h0Zm-.1,0h0Zm.1,0Zm.1,0Zm-.5-1.3a59,59,0,0,1-4.5-8.2c-9.3-26.1,3.8-50.4,24.5-66.4,27.7-18.8,59.6-20.6,90.3-11.8-26.9-6-54.8-3.5-80.4,11.6-17.3,12-29.9,28.8-32.6,48a47.5,47.5,0,0,0,1,20.8,71.1,71.1,0,0,1-1.3-7.6c.1,1.4.3,2.9.5,4.3a28,28,0,0,0,1.2,5c.4,1.4.8,2.9,1.3,4.3Zm.5,1.3h0Zm0,0Zm0,0Zm.1-.1h-.1v-.4l.2.2h0c-.1-.2-.1-.3-.2-.4v.2l.2.2h-.1Zm.1-.2Zm0,0Zm0,0Zm-.1.1Zm0,.1h-.2c-1.6,3.9-3.1,7.7-4.8,11.2-14.1,25.8-43,27.6-67.8,16.6-2.3-1.2-4.5-2.5-6.7-3.9,15.9,8.4,33.9,11.1,52.6,4,13.3-6.4,19.8-15.3,26.7-27.9-7.2,12.7-14.1,21.5-27.8,27.5-24.5,8.3-47.2.5-65.3-14.5S5.3,98.9.9,74.2q-.6-5-.9-9.9v6C2.5,92,10.1,112.5,24.5,130.7a120.7,120.7,0,0,1-13.9-17.1A139.4,139.4,0,0,1,0,90.6V95a133.1,133.1,0,0,0,12.2,23.7,107.9,107.9,0,0,0,28.6,27c19.1,13.7,42.8,19.8,65.1,7.3,10.8-7.5,14.8-16.4,19.6-28-3.2,12.9-5.4,22.9-15.1,32.8-25.9,21.8-60,13.4-85.2-4.9A120.6,120.6,0,0,1,0,123.9v2.7a123.6,123.6,0,0,0,23.9,27,164.9,164.9,0,0,0,16,10.2c30.8,14,71.8,11.2,82.9-26.1.9-4.1,1.7-8.3,2.7-12.8h0a7.6,7.6,0,0,1,.4,1.1c.5,3.7,1.1,7.2,1.8,10.6,3.3,16.5-1.5,29.6-13.8,40.9-21.9,17-48.8,15.8-73.5,5.8A115.6,115.6,0,0,1,0,151v.9c18.5,22.9,43.9,38.8,75.4,39.5a103.9,103.9,0,0,0,15.1-1.8c20.8-5.8,37.5-19.6,38.7-42.2-.3-7.3-2.3-14.2-3.2-21.3a102.1,102.1,0,0,0,5.3,12.2c11.1,25.1,1.7,48.9-18.3,66.1a93.3,93.3,0,0,1-8.1,5.3c-30,9.5-59.4,2.2-85.7-14.5A179.4,179.4,0,0,1,1.7,180.9L0,179.2v.8l2.1,2.2a144.7,144.7,0,0,0,36.3,24.2,117.3,117.3,0,0,0,37.5,8.3,93.9,93.9,0,0,0,27.3-4,89.3,89.3,0,0,1-23.1,8.8c-18.8.6-37.5-4.6-55.4-13.8A214.1,214.1,0,0,1,5.9,193L0,187.6v1.6c2.2,2,4.4,4,6.6,5.8a141.4,141.4,0,0,0,38.8,20.9,118.1,118.1,0,0,0,28.5,4.8c-19.8,3.2-40.6-.1-60.7-7.6A135.4,135.4,0,0,1,0,206.5v1.7c24.6,13.3,52.3,18.9,81.8,12.6h2.1c21.9-2.3,40.7-10.3,54.7-27.6,14.2-20.7,14.4-44.5-5.9-60.8a61.9,61.9,0,0,1-5.8-6.7,57.7,57.7,0,0,0,9.1,5.7c22.8,12,30.5,34.5,26.4,59.1-6.4,25.2-22.6,42.6-44.9,55.3-3.3,1.6-6.6,3-9.9,4.3h1.7a102,102,0,0,0,39.8-29.9,129.4,129.4,0,0,0,9-15c11.4-28.1,6.5-59.2-22.2-73.9a64.3,64.3,0,0,1-9-5.6,2.1,2.1,0,0,1-.4-.6h0a73.9,73.9,0,0,0,9.5,4.2c28.7,10,38.9,36.9,33.2,65.4C162.1,220,145.4,238,123.6,250h5.2a97.4,97.4,0,0,0,36.5-38.4,109.8,109.8,0,0,0,5.8-16c5.8-29.2-4.9-57.2-34.8-66.7a75.5,75.5,0,0,1-9.7-3.9c4.2.6,8.5.9,13,1.2a68,68,0,0,1,29.2,10.4c26.7,20.5,33.2,51.8,26.9,83.7A127.2,127.2,0,0,1,183.3,250h1.8a112.6,112.6,0,0,0,14.5-52.9c-1.9-36.1-22.2-67.1-60.1-71.2-4.5-.2-8.8-.4-12.9-.9h-.2l-.2-.3,12.9-4.5c16.9-4.2,31.8-2.5,47.5,4.8,23.4,13.2,36.7,34.1,42.3,58.3,1.6,23.9-4.1,45.7-15.4,66.8h2.4a167.4,167.4,0,0,0,7.9-16.5,130.5,130.5,0,0,0,7.3-37.3c.5,4.4.8,8.8.9,13.3a140,140,0,0,1-7.9,40.5h1.6a126.7,126.7,0,0,0,5.3-64.7,97.4,97.4,0,0,0-13.9-44.2c-19.1-27.4-52.2-42.2-82.6-23.3-3.1,2.1-5.8,4.3-8.5,6.5h-.3ZM0,250v-.2l.4.2Zm10.9,0c-3.7-1.4-7.3-2.9-10.9-4.5V245c4.3,1.8,8.7,3.5,13.1,5ZM0,36.2c.3-2.7.6-5.4,1-8.1A197.6,197.6,0,0,1,9,0h.9A157,157,0,0,0,0,46.5V36.2Zm125.8,88.5Zm0,0h.2l.4.2H126l-.2-.2Zm.2.2h.4l.2.4-.6-.5Zm.6.5a.8.8,0,0,0-.2-.4h.1l.3.5Zm.2.2a63,63,0,0,0,5.8,6.8c8.8,7.4,13.6,15,15.4,26.5,1.5,23.7-13.1,41.4-33,52.3a90.4,90.4,0,0,1-26.8,7.7,138.3,138.3,0,0,0,13.1-5.4c2.7-1.5,5.2-3.2,7.7-4.9a69.8,69.8,0,0,0,23.3-15.8c15.9-18.9,18.1-42-.2-59.9a44.6,44.6,0,0,1-5.4-7.5v.2Zm-.2-.2A58.1,58.1,0,0,0,132,133c8.1,7.9,12.2,15.7,13,27.2-.6,22.5-15.3,38.2-34.7,47.4,22-16.5,34.1-42.3,21.1-69.6a93.2,93.2,0,0,1-5.4-12c-.1-.4-.1-.7-.2-1.1h.2l.6.5Zm-.6-.5h-.2v-.2l.2.2Zm-.2-.2v.2h0Zm-.2.2h.2a4.1,4.1,0,0,1,.1,1.1,4.9,4.9,0,0,0-.4-1.1Zm-.1,0h0Zm.1,0Zm-.1-.1h0Zm0,.1h0Zm.3-.2h0Zm.4-.1h0Zm0,0h-.1v-.2c2.7-2.1,5.5-4.2,8.6-6.2,15.5-9.1,31.3-9.9,48.1-4,25.6,11.3,39.6,33.6,45.2,60.2-13.5-37.7-46.7-65.8-89.1-54.4l-12.6,4.7Zm0,0,.2.3h-.1v-.3Zm0,0v.3l-.3-.2Zm.3.4Zm-.1-.1h0Zm-1,0h0Zm.2-.7V124h0v.2Zm0-.2v.1ZM230.7,67.6a114.1,114.1,0,0,0-34.9-3.9c-35,3.8-64.3,23.9-70.2,59.9.1-19.1,8.4-34.2,23.1-46.5,19.4-14,40.9-17.5,64.4-14.4a123.1,123.1,0,0,1,17.6,4.9ZM125.8,124.5Zm0,0Zm.2-.2v.2H126ZM77.5,71.2a71,71,0,0,0,8.1,28.6c9.1,14.5,21.4,23.5,38.5,24.9-28.2-3.8-43.3-27-46.6-53.5Zm47.9,53.7a60.6,60.6,0,0,1-6.9,5.8,35.9,35.9,0,0,1-15.3,5.5C111,134.7,118.2,130.9,125.4,124.9Z"/><path class="cls-7" d="M151.7,111.6c-8.8.3-22.3,4.1-27.5,12.1-3.4,5.3-5.5,16.8-4.6,26.6,1.8,21.5,7.8,29.9,33.8,26.8,7.2-.8,29.7-4.2,33.8-15.1a41.1,41.1,0,0,0,2-14.5C188.5,126.9,171.7,110.9,151.7,111.6Z"/><path class="cls-8" d="M179.4,169c-6.8,4.2-22.5,7.8-35.2,7.9s-17.6-3.3-10.8-7.5,22.5-7.8,35.2-7.9S186.1,164.7,179.4,169Z"/><path class="cls-9" d="M179.4,169a29.6,29.6,0,0,1-5.9,2.7c-12.3,1.5-19.4-11.6-39-1.3l.6-2c7.5-3.8,21.8-6.8,33.5-6.9S186.1,164.7,179.4,169Z"/><path class="cls-10" d="M132.9,124.5c3.7,7.2,4.8,22.7,2.4,34.7s-7.4,15.7-11.1,8.5-4.9-22.7-2.5-34.7S129.1,117.3,132.9,124.5Z"/><path class="cls-11" d="M130.5,125.1c-1,1.3-1.6,4.7-1.4,7.5s1.1,4.2,2.1,3.1,1.8-4.6,1.6-7.6S131.6,123.7,130.5,125.1Z"/><path class="cls-12" d="M122.7,135c-.8,1.1-1.2,3.9-1,6.4s.9,3.8,1.6,2.9,1.3-3.8,1.2-6.4S123.5,134,122.7,135Z"/><path class="cls-13" d="M131.8,147.3c-1,1-1.7,4-1.5,6.8s1.1,4.4,2.1,3.6,1.8-3.8,1.6-6.8S132.8,146.4,131.8,147.3Z"/><path class="cls-14" d="M123.9,154.5c-.7.8-1.2,3.2-1,5.6s.9,3.8,1.7,3.3,1.3-3.1,1.1-5.6S124.7,153.8,123.9,154.5Z"/><path class="cls-15" d="M183.1,129.4c-7.7-12.5-23.3-19.6-34.8-15.7s-14.7,17.1-7,29.7,23.2,19.5,34.7,15.7S190.7,141.9,183.1,129.4Z"/><path class="cls-16" d="M169.8,163.3c-3,.2-5.5,1.3-5.6,2.3s2,1.7,4.8,1.5,5.5-1.2,5.8-2.3S172.8,163,169.8,163.3Z"/><path class="cls-17" d="M145.9,172.9c-2.4.1-4.3.9-4.1,1.7s2,1.3,4.4,1.2,4.2-.9,4.2-1.7S148.3,172.8,145.9,172.9Z"/><path class="cls-18" d="M182.6,129.7a35,35,0,0,0-15.7-13.8c-5.7-2.6-12.4-3.8-18.5-1.7a15.7,15.7,0,0,0-8.1,6c-3.8,5.6-3.3,12.6-.8,18.7,15.1-12.4,35.7,9.2,46.4-1.8A29.2,29.2,0,0,0,182.6,129.7Z"/><g class="cls-2"><g class="cls-19"><path class="cls-20" d="M147.4,129.4a10.1,10.1,0,0,0-.1,3,21.3,21.3,0,0,0,11.5,17.5l-.9-2.4a19.6,19.6,0,0,1-8.9-14.8v-1.5l-1.6-1.8"/><path class="cls-20" d="M179,140l-2,1.3a11.3,11.3,0,0,1-11.6,8.7l-2,1.5h.7c7.8,1.2,14-3.9,14.9-11.6"/><path class="cls-20" d="M172.2,122.8l-.6,1.6a18.9,18.9,0,0,1,5.7,11.1l1.6-.3a22.3,22.3,0,0,0-6.7-12.4"/><path class="cls-20" d="M162.3,117.9a12.7,12.7,0,0,0-13.1,5.9l2.8-.4a11.5,11.5,0,0,1,10.5-3.7,20.4,20.4,0,0,1,4.2,1.3l2.6-.4a17.6,17.6,0,0,0-7-2.7"/><path class="cls-21" d="M162.5,119.7a11.5,11.5,0,0,0-10.5,3.7l4.1-.7a9.9,9.9,0,0,1,6.5-1h0l4.1-.7a20.4,20.4,0,0,0-4.2-1.3"/><path class="cls-21" d="M171.6,124.4l-.6,1.8a16.7,16.7,0,0,1,4.6,9.6l1.7-.3a18.9,18.9,0,0,0-5.7-11.1"/><path class="cls-21" d="M177,141.3l-2.9,2a9.9,9.9,0,0,1-5.9,4.5l-2.8,2.2a11.3,11.3,0,0,0,11.6-8.7"/><path class="cls-21" d="M149,131.2v1.5a19.6,19.6,0,0,0,8.9,14.8l-1-2.8a16.7,16.7,0,0,1-6-11.5l-1.9-2"/><path class="cls-22" d="M181.9,136l-8.6,1.8,8.6-1.8m-10.8-14.1-25.4,3.7,8.1,9.4.7-3,9.5-3.7.2-.3,3.3-3.7-15.3,4.1-6.3-2.8,25.2-3.7m0,0-3.2,2.3c-2.2,6.8-4.5,13.6-6.7,20.4l-4.4-3.7,4,11L181.9,136l-20.7,8.6,3.6-5,6.3-17.7"/><path class="cls-23" d="M171.1,121.9l-25.2,3.7,6.3,2.8,15.3-4.1.6-.6c-.1.1-.1.3-.2.5l3.2-2.3"/><path class="cls-23" d="M168.1,123.7l-.6.6-3.3,3.7-.2.3-7.2,12.6,4.4,3.7c2.2-6.8,4.5-13.6,6.7-20.4.1-.2.1-.4.2-.5"/><path class="cls-23" d="M181.9,136l-8.6,1.8-8.5,1.8-3.6,5,20.7-8.6"/></g></g><path class="cls-24" d="M128.4,137.6c9.6,5.3,22.2,17.1,23.4,28.9.7,7.7-3.5,21.5-10,31.9-14.2,22.5-25.6,28.3-52.4,10.3-7.4-5-30.2-21.5-28.5-35.9.6-5.5,3.2-11.8,6.1-17C79.4,133.6,106.9,125.6,128.4,137.6Z"/><path class="cls-25" d="M65.5,185c5,8.5,20.4,21.3,34.2,28.6s21.1,6.4,16.1-2.1-20.3-21.3-34.2-28.6S60.5,176.5,65.5,185Z"/><path class="cls-26" d="M141.8,162.4c-8.2,5.8-18.2,22.3-22.4,36.8s-.8,21.5,7.4,15.7,18.3-22.3,22.4-36.7S150,156.6,141.8,162.4Z"/><path class="cls-27" d="M83.9,139.4c15.6-9.4,36.7-8.3,47.1,2.5s6.4,27.1-9.1,36.5-36.6,8.4-47.1-2.4S68.4,148.9,83.9,139.4Z"/><path class="cls-28" d="M142.1,162.8c-7,5-13.6,16-17.3,23.7a93.9,93.9,0,0,0-4.9,12.8,37.3,37.3,0,0,0-1.7,11.5c.1,1.7.5,4.4,2.2,5.3a3.6,3.6,0,0,0,2.5.2c-.3-1.3-.8-4.9,1.3-10.3,2.7-7.1,15.1-21.3,21.2-27.9a21.7,21.7,0,0,0,5.1-11v-.6c-.1-1.7-.6-4.4-2.3-5.3S143.6,161.8,142.1,162.8Z"/><path class="cls-29" d="M83.9,139.4c15.6-9.4,36.7-8.3,47.1,2.5s6.4,27.1-9.1,36.5-36.6,8.4-47.1-2.4S68.4,148.9,83.9,139.4Z"/><path class="cls-30" d="M84.2,139.9c-7.2,4.3-13.6,11.5-14.6,20a13.3,13.3,0,0,1,7.9-5.7c17-4.8,28.3,7.1,44.2,5.3,5.9-.6,12.2-2.2,14.6-5.8a.4.4,0,0,1-.1-.3,19.2,19.2,0,0,0-5.5-11.2c-5.5-5.6-13.6-8.2-21.4-8.6A43.4,43.4,0,0,0,84.2,139.9Z"/><path class="cls-31" d="M144,164.4c.4,2.1-.8,6.1-2.6,9.1s-3.6,4-4.1,2.2.6-6.1,2.6-9.3S143.7,162.3,144,164.4Z"/><path class="cls-32" d="M147,179.8c.2,1.6-.9,4.9-2.5,7.6s-3.1,3.6-3.5,2.2.8-4.8,2.4-7.6S146.7,178.2,147,179.8Z"/><path class="cls-33" d="M130,188.2c.6,1.6-.4,5.3-2.1,8.2s-3.7,4.2-4.4,2.8.2-5.2,2.1-8.4S129.5,186.5,130,188.2Z"/><path class="cls-34" d="M134.6,200.5c.4,1.3-.5,4.3-2,6.8s-3.2,3.7-3.7,2.6.3-4.2,1.9-6.8S134.1,199.3,134.6,200.5Z"/><path class="cls-35" d="M139.3,183.9c.3,1.9-.9,5.6-2.5,8.3s-3.4,3.6-3.8,1.9.7-5.5,2.5-8.4S139,182,139.3,183.9Z"/><path class="cls-36" d="M114.3,140c-3.1-.9-7.4.5-9.7,3.2s-1.9,5.7,1.2,6.8,7.7-.3,10.1-3.2S117.5,140.9,114.3,140Z"/><path class="cls-37" d="M100.9,136a9.7,9.7,0,0,0-9.1,3c-2.3,2.6-2,5.4.7,6.4s7.1-.4,9.5-3.1S103.7,136.8,100.9,136Z"/><path class="cls-38" d="M109.8,168.3c-3.4-1.4-8.2,0-10.8,3.1s-2.2,7.2,1.1,8.8,8.6.3,11.3-3.1S113.3,169.8,109.8,168.3Z"/><path class="cls-39" d="M66,184.8c.6,1,1.3,2,2,3s4.6,1.2,5.6,1.6c12.4,4.7,17.7,13.5,29.1,17,3.7,1.2,7.6,2.8,9.6,1.2a65.6,65.6,0,0,0-5.7-6,108.1,108.1,0,0,0-13.4-10.9,104.4,104.4,0,0,0-11.8-7.3c-3.5-1.8-7.6-3.8-11.4-4.6-1.3-.3-4.2-.7-5.2.6S65.3,183.6,66,184.8Z"/><path class="cls-40" d="M95.2,162.1c-3-1.3-7.4.1-10,3.1s-2.3,6.5.6,8,7.7.1,10.4-3S98.3,163.4,95.2,162.1Z"/><path class="cls-41" d="M82.3,156.6c-2.8-1.1-6.9.2-9.4,2.9s-2.4,6.1.2,7.4,7,.1,9.6-2.9S85,157.8,82.3,156.6Z"/><path class="cls-42" d="M98.9,196.5c-3.3-1.9-5.3-2-4.4-.3s4.2,4.5,7.5,6.3,5.4,2.1,4.6.4S102.3,198.3,98.9,196.5Z"/><path class="cls-43" d="M70.2,180.7c-3-1.7-4.6-1.6-3.6,0s4.2,4.4,7.2,6,4.7,1.7,3.7.1S73.3,182.3,70.2,180.7Z"/><path class="cls-44" d="M106,210.2c-3.3-1.9-5.2-2.1-4.4-.6s4,4.2,7.2,6,5.2,2.2,4.5.7S109.2,212,106,210.2Z"/><path class="cls-45" d="M78.3,194.4c-3-1.6-4.6-1.7-3.6-.2s3.9,4.1,6.8,5.7,4.6,1.9,3.7.3S81.2,196.1,78.3,194.4Z"/><path class="cls-46" d="M129.8,144.5c-3.3-1.2-8,.1-10.6,2.8s-2.3,6.1.9,7.4,8.3.2,11-2.8S133.1,145.7,129.8,144.5Z"/><path class="cls-47" d="M76.8,92.9a85.5,85.5,0,0,1-10.1-.6L64.2,92l.5-48.7,1.6-.8a27,27,0,0,1,5.4-1.9,19.7,19.7,0,0,1,5.5-.7,30.1,30.1,0,0,1,25.1,13.9,26.4,26.4,0,0,1,4.2,14.5c0,8.3-2.8,14.5-8.4,18.7S85.6,92.9,76.8,92.9ZM81,74.3a10.8,10.8,0,0,0,5.6-1.9c1.4-1.3,2.2-3.2,2.2-6a6.2,6.2,0,0,0-1.2-3.8,7.2,7.2,0,0,0-3-2.7A9.5,9.5,0,0,0,81,59Z"/><polygon class="cls-47" points="101.9 83.2 108.7 45.2 122.6 47.6 115.7 85.6 101.9 83.2"/><path class="cls-47" d="M143.3,85.1a15.1,15.1,0,0,1-4.2-.5,19.1,19.1,0,0,1-8.4-4.5,19.4,19.4,0,0,1-5.3-8.2,18.2,18.2,0,0,1-.6-9.8,18.9,18.9,0,0,1,4.3-8.6,18.7,18.7,0,0,1,8.1-5.4,19.6,19.6,0,0,1,5.9-.9h1.3a16.4,16.4,0,0,1,7.1,2.2,16.1,16.1,0,0,1,5.7,5.6l1.5,2.3L149.1,64h11.1l.4,2.4a13.6,13.6,0,0,1-.9,7.4,18.4,18.4,0,0,1-4.4,6.4,19.5,19.5,0,0,1-6.6,4A16.8,16.8,0,0,1,143.3,85.1Zm-.2-23.9-1.6.2a5.3,5.3,0,0,0-2.8,2.2,4.5,4.5,0,0,0-.1,3.8,6.1,6.1,0,0,0,1.6,2.6,4.4,4.4,0,0,0,2,1.1h.9a4,4,0,0,0,3.2-1.3,8.3,8.3,0,0,0,1.2-1.6,3,3,0,0,0,.3-1.2V64.3l-1.3-1.7a4.3,4.3,0,0,0-2-1.2A2.7,2.7,0,0,0,143.1,61.2Z"/><polygon class="cls-47" points="160.4 44 193 43 194.1 58.9 191.1 58.9 191.8 72 194.5 71.9 194.5 87.8 162 88.5 160.4 44"/><path class="cls-47" d="M76.7,92.7A69.5,69.5,0,0,1,66.6,92l-2.4-.3.5-48.6,1.5-.8a36.2,36.2,0,0,1,5.4-2,25.1,25.1,0,0,1,5.5-.6,30.1,30.1,0,0,1,25.1,13.9,26.2,26.2,0,0,1,4.2,14.5c0,8.2-2.8,14.5-8.4,18.6S85.5,92.7,76.7,92.7ZM81,74.1c2.4-.3,4.3-.9,5.5-2s2.2-3.1,2.2-5.9a6.8,6.8,0,0,0-1.1-3.8,7.4,7.4,0,0,0-3.1-2.7,7.6,7.6,0,0,0-3.5-.9Z"/><polygon class="cls-47" points="101.8 83 108.7 45 122.5 47.4 115.6 85.4 101.8 83"/><path class="cls-47" d="M143.2,84.9a15.1,15.1,0,0,1-4.2-.5,18.8,18.8,0,0,1-8.4-4.6,19.1,19.1,0,0,1-5.3-8.1,18.3,18.3,0,0,1-.6-9.8,18.9,18.9,0,0,1,4.3-8.6,18.7,18.7,0,0,1,8.1-5.4A19.6,19.6,0,0,1,143,47h1.3a17.2,17.2,0,0,1,7.2,2.2,16.7,16.7,0,0,1,5.6,5.6l1.5,2.2L149,63.8h11.2l.3,2.4a13.7,13.7,0,0,1-.9,7.4,17.1,17.1,0,0,1-4.4,6.3,16.8,16.8,0,0,1-6.6,4A17,17,0,0,1,143.2,84.9Zm-.2-24-1.6.3a5.3,5.3,0,0,0-2.8,2.2,4.2,4.2,0,0,0,0,3.8,5.6,5.6,0,0,0,1.5,2.6,4.2,4.2,0,0,0,2,1h.9l1.5-.2a5,5,0,0,0,1.7-1.1,3.8,3.8,0,0,0,1.2-1.7,2.7,2.7,0,0,0,.3-1.2V64.1l-1.3-1.7a4.4,4.4,0,0,0-2-1.3Z"/><polygon class="cls-47" points="160.3 43.8 192.9 42.7 194 58.7 191 58.7 191.7 71.7 194.4 71.6 194.4 87.6 161.9 88.3 160.3 43.8"/><path class="cls-47" d="M76.7,92.5a67.7,67.7,0,0,1-10.1-.7l-2.5-.3.5-48.7,1.6-.7a26.9,26.9,0,0,1,5.3-2,25.3,25.3,0,0,1,5.6-.6,29,29,0,0,1,14.2,3.7,31.3,31.3,0,0,1,10.9,10.2,27,27,0,0,1,4.2,14.5c0,8.2-2.9,14.5-8.5,18.6S85.5,92.5,76.7,92.5Zm4.2-18.7a9.2,9.2,0,0,0,5.5-1.9c1.5-1.2,2.2-3.2,2.2-5.9a7.1,7.1,0,0,0-1.1-3.9,7.9,7.9,0,0,0-3.1-2.6,9.3,9.3,0,0,0-3.5-1Z"/><polygon class="cls-47" points="101.7 82.8 108.6 44.8 122.4 47.2 115.5 85.1 101.7 82.8"/><path class="cls-47" d="M143.1,84.7a20.1,20.1,0,0,1-4.2-.5,18.8,18.8,0,0,1-8.4-4.6,20.1,20.1,0,0,1-5.3-8.1,18.3,18.3,0,0,1-.6-9.8,18.9,18.9,0,0,1,4.3-8.6,18.7,18.7,0,0,1,8.1-5.4,19.7,19.7,0,0,1,5.9-1h1.3a15.9,15.9,0,0,1,7.2,2.2,16.7,16.7,0,0,1,5.6,5.6l1.5,2.2-9.6,6.8h11.2l.3,2.4a13.7,13.7,0,0,1-.9,7.4,18,18,0,0,1-4.4,6.3,16.8,16.8,0,0,1-6.6,4A17,17,0,0,1,143.1,84.7Zm-.2-24-1.6.3a5.3,5.3,0,0,0-2.8,2.2,4.9,4.9,0,0,0,0,3.8,4.8,4.8,0,0,0,1.5,2.5,3.6,3.6,0,0,0,2.1,1.1h.8l1.5-.2a4.2,4.2,0,0,0,1.7-1.1,3.8,3.8,0,0,0,1.2-1.7,3,3,0,0,0,.3-1.2V63.9l-1.3-1.7a3.4,3.4,0,0,0-2-1.3Z"/><polygon class="cls-47" points="160.3 43.6 192.8 42.5 193.9 58.4 191 58.5 191.6 71.5 194.3 71.4 194.3 87.3 161.8 88.1 160.3 43.6"/><path class="cls-47" d="M76.6,92.2a84.3,84.3,0,0,1-10.1-.6L64,91.3l.5-48.7,1.6-.7a27.7,27.7,0,0,1,5.4-2,23.8,23.8,0,0,1,5.5-.6A29,29,0,0,1,91.2,43a30.5,30.5,0,0,1,10.9,10.2,26.2,26.2,0,0,1,4.2,14.5c0,8.2-2.9,14.5-8.5,18.6S85.4,92.2,76.6,92.2Zm4.2-18.6a9.9,9.9,0,0,0,5.5-1.9c1.5-1.2,2.2-3.2,2.2-5.9a7.1,7.1,0,0,0-1.1-3.9,7.9,7.9,0,0,0-3.1-2.6,9.3,9.3,0,0,0-3.5-1Z"/><polygon class="cls-47" points="101.6 82.5 108.5 44.6 122.3 47 115.4 84.9 101.6 82.5"/><path class="cls-47" d="M143,84.5a20.1,20.1,0,0,1-4.2-.5,18.8,18.8,0,0,1-8.4-4.6,19.7,19.7,0,0,1-5.3-8.2,20,20,0,0,1-.6-9.7,19.8,19.8,0,0,1,4.3-8.7,18.2,18.2,0,0,1,8.1-5.3,17.4,17.4,0,0,1,5.9-1h1.3a15.9,15.9,0,0,1,7.2,2.2,17.3,17.3,0,0,1,5.6,5.5l1.5,2.3-9.6,6.8H160l.3,2.4a13.7,13.7,0,0,1-.9,7.4,16.8,16.8,0,0,1-4.4,6.3,17.2,17.2,0,0,1-6.6,4A17,17,0,0,1,143,84.5Zm-.1-24a5.1,5.1,0,0,0-1.7.3,4.5,4.5,0,0,0-2.8,2.2,4.7,4.7,0,0,0,0,3.7,6.4,6.4,0,0,0,1.5,2.6,3.9,3.9,0,0,0,2.1,1.1h.8a4,4,0,0,0,1.5-.3,3.2,3.2,0,0,0,1.7-1,4.4,4.4,0,0,0,1.2-1.7,3,3,0,0,0,.3-1.2V63.7L146.1,62a3.4,3.4,0,0,0-2-1.3Z"/><polygon class="cls-47" points="160.2 43.3 192.7 42.3 193.8 58.2 190.9 58.3 191.5 71.3 194.3 71.2 194.3 87.1 161.7 87.9 160.2 43.3"/><path class="cls-47" d="M76.5,92a84.3,84.3,0,0,1-10.1-.6l-2.5-.3.5-48.7,1.6-.7a27.7,27.7,0,0,1,5.4-2,23.8,23.8,0,0,1,5.5-.6,29,29,0,0,1,14.2,3.7A30.2,30.2,0,0,1,102,52.9a26.7,26.7,0,0,1,4.2,14.6c0,8.2-2.9,14.4-8.4,18.6S85.3,92,76.5,92Zm4.2-18.6a9.9,9.9,0,0,0,5.5-1.9c1.5-1.3,2.2-3.2,2.2-5.9a7.1,7.1,0,0,0-1.1-3.9,7.9,7.9,0,0,0-3.1-2.6,8.8,8.8,0,0,0-3.5-1Z"/><polygon class="cls-47" points="101.5 82.3 108.4 44.4 122.2 46.7 115.4 84.7 101.5 82.3"/><path class="cls-47" d="M142.9,84.3a20.9,20.9,0,0,1-4.2-.5,20.4,20.4,0,0,1-8.4-4.6,19.2,19.2,0,0,1-5.2-8.2,18.2,18.2,0,0,1-.6-9.8,18.8,18.8,0,0,1,4.2-8.6,18,18,0,0,1,8.2-5.3,16.5,16.5,0,0,1,5.8-1H144a16.5,16.5,0,0,1,7.2,2.3,17.5,17.5,0,0,1,5.7,5.5l1.4,2.3-9.6,6.8h11.2l.4,2.3a14.5,14.5,0,0,1-1,7.4,18.1,18.1,0,0,1-4.3,6.4,18.4,18.4,0,0,1-6.7,4A17,17,0,0,1,142.9,84.3Zm-.1-24a4.5,4.5,0,0,0-1.6.3,4.4,4.4,0,0,0-2.9,2.2,4.7,4.7,0,0,0,0,3.7,7.1,7.1,0,0,0,1.5,2.6,4.7,4.7,0,0,0,2.1,1.1h.8a4,4,0,0,0,1.5-.3,4.9,4.9,0,0,0,2.9-2.7,4.8,4.8,0,0,0,.4-1.2V63.4l-1.3-1.7a4.7,4.7,0,0,0-2.1-1.2Z"/><polygon class="cls-47" points="160.1 43.1 192.6 42.1 193.8 58 190.8 58 191.4 71.1 194.2 71 194.2 86.9 161.6 87.6 160.1 43.1"/><path class="cls-47" d="M76.4,91.8a84.3,84.3,0,0,1-10.1-.6l-2.5-.3.5-48.7,1.6-.8a27,27,0,0,1,5.4-1.9,19.7,19.7,0,0,1,5.5-.7,30.7,30.7,0,0,1,25.1,13.9,26.7,26.7,0,0,1,4.2,14.6q0,12.3-8.4,18.6C92.3,89.8,85.2,91.8,76.4,91.8Zm4.2-18.6a10.3,10.3,0,0,0,5.6-1.9c1.4-1.3,2.1-3.2,2.1-5.9a6.2,6.2,0,0,0-1.1-3.9,8.1,8.1,0,0,0-3.1-2.7,10.6,10.6,0,0,0-3.5-.9Z"/><polygon class="cls-47" points="101.4 82.1 108.3 44.1 122.1 46.5 115.3 84.5 101.4 82.1"/><path class="cls-47" d="M142.8,84.1a15.1,15.1,0,0,1-4.1-.6,19,19,0,0,1-8.5-4.5,19.2,19.2,0,0,1-5.2-8.2A18.8,18.8,0,0,1,136.8,47a19.6,19.6,0,0,1,5.9-.9H144a16.4,16.4,0,0,1,7.1,2.2,16.9,16.9,0,0,1,5.7,5.6l1.4,2.3-9.5,6.7h11.1l.4,2.4a14.5,14.5,0,0,1-1,7.4,18.1,18.1,0,0,1-4.3,6.4,18.4,18.4,0,0,1-6.7,4A16.1,16.1,0,0,1,142.8,84.1Zm-.1-24-1.6.2a4.9,4.9,0,0,0-2.9,2.3,4.7,4.7,0,0,0,0,3.7,6.1,6.1,0,0,0,1.6,2.6,4.4,4.4,0,0,0,2,1.1h.8a3.9,3.9,0,0,0,1.5-.2,4.2,4.2,0,0,0,1.8-1.1,5.1,5.1,0,0,0,1.1-1.6,2.4,2.4,0,0,0,.4-1.2V63.2L146,61.5a4.8,4.8,0,0,0-2-1.2A3.2,3.2,0,0,0,142.7,60.1Z"/><polygon class="cls-47" points="160 42.9 192.6 41.9 193.7 57.8 190.7 57.8 191.4 70.9 194.1 70.8 194.1 86.7 161.5 87.4 160 42.9"/><path class="cls-47" d="M76.3,91.6A84.3,84.3,0,0,1,66.2,91l-2.5-.4L64.2,42l1.6-.8a36.2,36.2,0,0,1,5.4-2,24.4,24.4,0,0,1,5.5-.6,30.1,30.1,0,0,1,14.2,3.7,29.7,29.7,0,0,1,10.9,10.2A26.2,26.2,0,0,1,106,67c0,8.2-2.8,14.5-8.4,18.6S85.1,91.6,76.3,91.6ZM80.5,73a10.3,10.3,0,0,0,5.6-2c1.4-1.2,2.1-3.1,2.1-5.9a6.1,6.1,0,0,0-1.1-3.8,7.7,7.7,0,0,0-3-2.7,8,8,0,0,0-3.6-.9Z"/><polygon class="cls-47" points="101.3 81.9 108.2 43.9 122 46.3 115.2 84.3 101.3 81.9"/><path class="cls-47" d="M142.8,83.8a15.1,15.1,0,0,1-4.2-.5,19.2,19.2,0,0,1-8.5-4.6,19.3,19.3,0,0,1-5.8-17.9,18.9,18.9,0,0,1,4.3-8.6,18.7,18.7,0,0,1,8.1-5.4,19.6,19.6,0,0,1,5.9-.9h1.3a16.4,16.4,0,0,1,7.1,2.2,16.1,16.1,0,0,1,5.7,5.6l1.4,2.2-9.5,6.8h11.1l.4,2.4a14.7,14.7,0,0,1-.9,7.4,18.4,18.4,0,0,1-4.4,6.3,18.7,18.7,0,0,1-6.7,4.1A18.9,18.9,0,0,1,142.8,83.8Zm-.2-24a4.5,4.5,0,0,0-1.6.3,5.2,5.2,0,0,0-2.9,2.2,4.9,4.9,0,0,0,0,3.8,6.8,6.8,0,0,0,1.6,2.6,4.2,4.2,0,0,0,2,1h.9l1.4-.2a5.4,5.4,0,0,0,1.8-1.1,6.6,6.6,0,0,0,1.2-1.7,2.7,2.7,0,0,0,.3-1.2V63l-1.3-1.7a4.4,4.4,0,0,0-2-1.3Z"/><polygon class="cls-47" points="159.9 42.7 192.5 41.6 193.6 57.6 190.6 57.6 191.3 70.7 194 70.5 194 86.5 161.4 87.2 159.9 42.7"/><path class="cls-47" d="M76.2,91.4a67.7,67.7,0,0,1-10.1-.7l-2.5-.3.5-48.6,1.6-.8a27.7,27.7,0,0,1,5.4-2,24.4,24.4,0,0,1,5.5-.6,28.7,28.7,0,0,1,14.2,3.7,29.7,29.7,0,0,1,10.9,10.2,26.2,26.2,0,0,1,4.2,14.5c0,8.2-2.8,14.5-8.4,18.6S85,91.4,76.2,91.4Zm4.2-18.7A9.5,9.5,0,0,0,86,70.8c1.4-1.2,2.1-3.1,2.1-5.9A5.9,5.9,0,0,0,87,61.1a7.7,7.7,0,0,0-3-2.7,8,8,0,0,0-3.6-.9Z"/><polygon class="cls-47" points="101.3 81.7 108.1 43.7 122 46.1 115.1 84 101.3 81.7"/><path class="cls-47" d="M142.7,83.6a20.1,20.1,0,0,1-4.2-.5,19.8,19.8,0,0,1-13.7-12.7,18.3,18.3,0,0,1-.6-9.8,18.9,18.9,0,0,1,4.3-8.6,18.7,18.7,0,0,1,8.1-5.4,19.7,19.7,0,0,1,5.9-1h1.3a16.4,16.4,0,0,1,7.1,2.2,16.1,16.1,0,0,1,5.7,5.6l1.4,2.2-9.5,6.8h11.1L160,65a13.7,13.7,0,0,1-.9,7.4,18.4,18.4,0,0,1-4.4,6.3,16.4,16.4,0,0,1-6.7,4A16,16,0,0,1,142.7,83.6Zm-.2-24-1.6.3a4.6,4.6,0,0,0-2.8,2.2,4.5,4.5,0,0,0-.1,3.8,5.7,5.7,0,0,0,1.6,2.5,3.7,3.7,0,0,0,2,1.1h.9l1.4-.2a5.4,5.4,0,0,0,1.8-1.1,6.6,6.6,0,0,0,1.2-1.7,2.7,2.7,0,0,0,.3-1.2V62.8l-1.3-1.7a3.7,3.7,0,0,0-2-1.3Z"/><polygon class="cls-47" points="159.8 42.5 192.4 41.4 193.5 57.3 190.5 57.4 191.2 70.4 193.9 70.3 193.9 86.2 161.3 87 159.8 42.5"/><path class="cls-47" d="M76.1,91.2A85.7,85.7,0,0,1,66,90.5l-2.5-.3L64,41.5l1.6-.7a27.7,27.7,0,0,1,5.4-2,24.4,24.4,0,0,1,5.5-.6,28.7,28.7,0,0,1,14.2,3.7,29.7,29.7,0,0,1,10.9,10.2,26.2,26.2,0,0,1,4.2,14.5c0,8.2-2.8,14.5-8.4,18.6S84.9,91.2,76.1,91.2Zm4.2-18.7c2.5-.2,4.4-.8,5.6-1.9s2.2-3.2,2.2-5.9a6.5,6.5,0,0,0-1.2-3.9,7,7,0,0,0-3-2.6,9.7,9.7,0,0,0-3.6-1Z"/><polygon class="cls-47" points="101.2 81.4 108 43.5 121.9 45.9 115 83.8 101.2 81.4"/><path class="cls-47" d="M142.6,83.4a20.1,20.1,0,0,1-4.2-.5,18.3,18.3,0,0,1-8.4-4.6,18.8,18.8,0,0,1-5.3-8.2,18.6,18.6,0,0,1,3.7-18.3,18.9,18.9,0,0,1,14-6.4h1.3a15.1,15.1,0,0,1,7.1,2.2,16.6,16.6,0,0,1,5.7,5.5l1.5,2.3-9.6,6.8h11.1l.4,2.4a13.7,13.7,0,0,1-.9,7.4,18.6,18.6,0,0,1-11,10.3A17,17,0,0,1,142.6,83.4Zm-.2-24-1.6.3a4.3,4.3,0,0,0-2.9,6,5.7,5.7,0,0,0,1.6,2.5,3.7,3.7,0,0,0,2,1.1h.9a4,4,0,0,0,1.5-.3,3.7,3.7,0,0,0,1.7-1,8.8,8.8,0,0,0,1.2-1.7,3,3,0,0,0,.3-1.2V62.6l-1.3-1.7a3.7,3.7,0,0,0-2-1.3Z"/><polygon class="cls-47" points="159.7 42.3 192.3 41.2 193.4 57.1 190.4 57.2 191.1 70.2 193.8 70.1 193.8 86 161.3 86.8 159.7 42.3"/><path class="cls-47" d="M76,90.9a86.8,86.8,0,0,1-10.1-.6L63.5,90,64,41.3l1.5-.7a27.7,27.7,0,0,1,5.4-2,25.1,25.1,0,0,1,5.5-.6,28.4,28.4,0,0,1,14.2,3.7,29.4,29.4,0,0,1,10.9,10.1,26.7,26.7,0,0,1,4.2,14.6c0,8.2-2.8,14.5-8.4,18.6S84.8,90.9,76,90.9Zm4.3-18.6a9.9,9.9,0,0,0,5.5-1.9c1.5-1.3,2.2-3.2,2.2-5.9a7.1,7.1,0,0,0-1.1-3.9A7.9,7.9,0,0,0,83.8,58a9.3,9.3,0,0,0-3.5-1Z"/><polygon class="cls-47" points="101.1 81.2 108 43.3 121.8 45.6 114.9 83.6 101.1 81.2"/><path class="cls-47" d="M142.5,83.2a20.1,20.1,0,0,1-4.2-.5,19.8,19.8,0,0,1-8.4-4.6,19.4,19.4,0,0,1-5.3-8.2,17.9,17.9,0,0,1-.6-9.7,18.8,18.8,0,0,1,4.3-8.7,17.7,17.7,0,0,1,8.1-5.3,17,17,0,0,1,5.9-1h1.3a17.4,17.4,0,0,1,7.2,2.3,16.3,16.3,0,0,1,5.6,5.5l1.5,2.3-9.6,6.8h11.2l.3,2.3a13.5,13.5,0,0,1-.9,7.4,17.5,17.5,0,0,1-4.4,6.4,18,18,0,0,1-6.6,4A17,17,0,0,1,142.5,83.2Zm-.2-24-1.6.3a4.5,4.5,0,0,0-2.8,2.2,4,4,0,0,0,0,3.7,5.1,5.1,0,0,0,1.5,2.6,4.4,4.4,0,0,0,2,1.1h.9l1.5-.3a4.8,4.8,0,0,0,1.7-1,4.4,4.4,0,0,0,1.2-1.7A3,3,0,0,0,147,65V62.3l-1.3-1.6a3.7,3.7,0,0,0-2-1.3Z"/><polygon class="cls-47" points="159.6 42 192.2 41 193.3 56.9 190.3 56.9 191 70 193.7 69.9 193.7 85.8 161.2 86.5 159.6 42"/><path class="cls-47" d="M76,90.7a84.3,84.3,0,0,1-10.1-.6l-2.5-.3.5-48.7,1.6-.8a26.2,26.2,0,0,1,5.3-1.9,25.2,25.2,0,0,1,5.6-.7,29.1,29.1,0,0,1,14.2,3.8,30.1,30.1,0,0,1,10.9,10.1,27.6,27.6,0,0,1,4.2,14.6c0,8.2-2.9,14.4-8.5,18.6S84.8,90.7,76,90.7Zm4.2-18.6a9.9,9.9,0,0,0,5.5-1.9c1.5-1.3,2.2-3.2,2.2-5.9a6.9,6.9,0,0,0-1.1-3.9,8.1,8.1,0,0,0-3.1-2.7,11.3,11.3,0,0,0-3.5-.9Z"/><polygon class="cls-47" points="101 81 107.9 43 121.7 45.4 114.8 83.4 101 81"/><path class="cls-47" d="M142.4,83a15.2,15.2,0,0,1-4.2-.6,18.6,18.6,0,0,1-8.4-4.5,20.4,20.4,0,0,1-5.3-8.2,18.2,18.2,0,0,1-.6-9.8,18.9,18.9,0,0,1,4.3-8.6,18.7,18.7,0,0,1,8.1-5.4,19.6,19.6,0,0,1,5.9-.9h1.3a17.2,17.2,0,0,1,7.2,2.2,17.6,17.6,0,0,1,5.6,5.6l1.5,2.3-9.6,6.7,11.2.2.3,2.3a13.5,13.5,0,0,1-.9,7.4,18.4,18.4,0,0,1-4.4,6.4,18,18,0,0,1-6.6,4A17,17,0,0,1,142.4,83Zm-.2-24-1.6.3a4.5,4.5,0,0,0-2.8,2.2,4.7,4.7,0,0,0,0,3.7,5.1,5.1,0,0,0,1.5,2.6,4.3,4.3,0,0,0,2.1,1.1h.8a3.9,3.9,0,0,0,1.5-.2,3.4,3.4,0,0,0,1.7-1.1,4.2,4.2,0,0,0,1.2-1.6,3,3,0,0,0,.3-1.2V62.1l-1.3-1.7a3.8,3.8,0,0,0-2-1.2A2.7,2.7,0,0,0,142.2,59Z"/><polygon class="cls-47" points="159.6 41.8 192.1 40.8 193.2 56.7 190.3 56.7 190.9 69.8 193.6 69.7 193.6 85.6 161.1 86.3 159.6 41.8"/><path class="cls-47" d="M75.9,90.5a84.3,84.3,0,0,1-10.1-.6l-2.5-.4.5-48.6,1.6-.8a27,27,0,0,1,5.4-1.9,19.3,19.3,0,0,1,5.5-.7,30.1,30.1,0,0,1,14.2,3.7,30.5,30.5,0,0,1,10.9,10.2,26.2,26.2,0,0,1,4.2,14.5c0,8.3-2.9,14.5-8.5,18.7S84.7,90.5,75.9,90.5Zm4.2-18.6c2.4-.3,4.3-.9,5.5-2s2.2-3.1,2.2-5.9a6.8,6.8,0,0,0-1.1-3.8,8.1,8.1,0,0,0-3.1-2.7,9.1,9.1,0,0,0-3.5-.9Z"/><polygon class="cls-47" points="100.9 80.8 107.8 42.8 121.6 45.2 114.7 83.2 100.9 80.8"/><path class="cls-47" d="M142.3,82.7a15.1,15.1,0,0,1-4.2-.5,19.6,19.6,0,0,1-8.4-4.5,19.3,19.3,0,0,1-5.9-18,20,20,0,0,1,4.3-8.6,19.3,19.3,0,0,1,8.1-5.4,20.1,20.1,0,0,1,5.9-.9h1.3a17.2,17.2,0,0,1,7.2,2.2,16.7,16.7,0,0,1,5.6,5.6l1.5,2.2-9.6,6.8h11.2l.3,2.4a13.6,13.6,0,0,1-.9,7.4,17.1,17.1,0,0,1-4.4,6.4,18.6,18.6,0,0,1-6.6,4A20.2,20.2,0,0,1,142.3,82.7Zm-.1-23.9a5,5,0,0,0-1.7.2,5.3,5.3,0,0,0-2.8,2.2,4.9,4.9,0,0,0,0,3.8,8.1,8.1,0,0,0,1.5,2.6,3.7,3.7,0,0,0,2.1,1h.8l1.5-.2a3.4,3.4,0,0,0,1.7-1.1,4.2,4.2,0,0,0,1.2-1.6,3.4,3.4,0,0,0,.3-1.2V61.9l-1.3-1.7a3.8,3.8,0,0,0-2-1.2A2.5,2.5,0,0,0,142.2,58.8Z"/><polygon class="cls-47" points="159.5 41.6 192 40.5 193.1 56.5 190.2 56.5 190.8 69.6 193.6 69.5 193.6 85.4 161 86.1 159.5 41.6"/><path class="cls-47" d="M75.8,90.3a67.7,67.7,0,0,1-10.1-.7l-2.5-.3.5-48.6,1.6-.8a27.7,27.7,0,0,1,5.4-2,23.8,23.8,0,0,1,5.5-.6A30.1,30.1,0,0,1,90.4,41a30.5,30.5,0,0,1,10.9,10.2,26.2,26.2,0,0,1,4.2,14.5c0,8.2-2.9,14.5-8.4,18.6S84.6,90.3,75.8,90.3ZM80,71.6a9.2,9.2,0,0,0,5.5-1.9c1.5-1.2,2.2-3.1,2.2-5.9A6.6,6.6,0,0,0,86.6,60,8.4,8.4,0,0,0,80,56.4Z"/><polygon class="cls-47" points="100.8 80.6 107.7 42.6 121.5 45 114.7 83 100.8 80.6"/><path class="cls-47" d="M142.2,82.5A20.9,20.9,0,0,1,138,82a19.4,19.4,0,0,1-8.4-4.6,18.9,18.9,0,0,1-5.2-8.1,18.3,18.3,0,0,1-.6-9.8,18.8,18.8,0,0,1,4.2-8.6,19.2,19.2,0,0,1,14-6.4h1.3a16.4,16.4,0,0,1,7.2,2.2,17.9,17.9,0,0,1,5.7,5.6l1.4,2.2L148,61.4h11.2l.4,2.4a14.8,14.8,0,0,1-1,7.4,16.9,16.9,0,0,1-4.3,6.3,17.9,17.9,0,0,1-12.1,4.9Zm-.1-24a4.5,4.5,0,0,0-1.6.3,5.2,5.2,0,0,0-2.9,2.2,4.9,4.9,0,0,0,0,3.8,6.6,6.6,0,0,0,1.5,2.5,3.9,3.9,0,0,0,2.1,1.1h.8l1.5-.2a5.4,5.4,0,0,0,1.8-1.1,4.5,4.5,0,0,0,1.1-1.7,3.8,3.8,0,0,0,.4-1.2V61.7L145.4,60a4.7,4.7,0,0,0-2.1-1.3Z"/><polygon class="cls-47" points="159.4 41.4 191.9 40.3 193.1 56.2 190.1 56.3 190.7 69.3 193.5 69.2 193.5 85.2 160.9 85.9 159.4 41.4"/><path class="cls-47" d="M75.7,90.1a84.2,84.2,0,0,1-10.1-.7l-2.5-.3.5-48.7,1.6-.7a27.7,27.7,0,0,1,5.4-2,24.4,24.4,0,0,1,5.5-.6,29,29,0,0,1,14.2,3.7A30.5,30.5,0,0,1,101.2,51a26.2,26.2,0,0,1,4.2,14.5c0,8.2-2.8,14.5-8.4,18.6S84.5,90.1,75.7,90.1Zm4.2-18.7a9.5,9.5,0,0,0,5.6-1.9c1.4-1.2,2.1-3.2,2.1-5.9a6.4,6.4,0,0,0-1.1-3.9,7.9,7.9,0,0,0-3.1-2.6,8.8,8.8,0,0,0-3.5-1Z"/><polygon class="cls-47" points="100.7 80.3 107.6 42.4 121.4 44.8 114.6 82.7 100.7 80.3"/><path class="cls-47" d="M142.1,82.3a19.9,19.9,0,0,1-4.1-.5,19.2,19.2,0,0,1-8.5-4.6,18.9,18.9,0,0,1-5.2-8.1,18.3,18.3,0,0,1-.6-9.8,17.6,17.6,0,0,1,4.3-8.6,17.3,17.3,0,0,1,8.1-5.4,17,17,0,0,1,5.9-1h1.3a15.1,15.1,0,0,1,7.1,2.2,17.6,17.6,0,0,1,5.7,5.5l1.4,2.3L148,61.2h11.1l.4,2.4a14.8,14.8,0,0,1-1,7.4,17.7,17.7,0,0,1-4.3,6.3,17.1,17.1,0,0,1-6.7,4A16.1,16.1,0,0,1,142.1,82.3Zm-.1-24a4.5,4.5,0,0,0-1.6.3,4.4,4.4,0,0,0-2.9,2.2,4.9,4.9,0,0,0,0,3.8,5.7,5.7,0,0,0,1.6,2.5,3.7,3.7,0,0,0,2,1.1h.8a5.8,5.8,0,0,0,3.3-1.3,5.5,5.5,0,0,0,1.1-1.7,2.4,2.4,0,0,0,.4-1.2V61.5l-1.3-1.7a4.1,4.1,0,0,0-2-1.3Z"/><polygon class="cls-47" points="159.3 41.2 191.9 40.1 193 56 190 56.1 190.7 69.1 193.4 69 193.4 84.9 160.8 85.7 159.3 41.2"/><path class="cls-47" d="M75.6,89.8a84.3,84.3,0,0,1-10.1-.6L63,88.9l.5-48.7,1.6-.7a27.7,27.7,0,0,1,5.4-2,24.4,24.4,0,0,1,5.5-.6,29,29,0,0,1,14.2,3.7,29.4,29.4,0,0,1,10.9,10.1,26.7,26.7,0,0,1,4.2,14.6c0,8.2-2.8,14.5-8.4,18.6S84.4,89.8,75.6,89.8Zm4.2-18.6a10.3,10.3,0,0,0,5.6-1.9c1.4-1.3,2.1-3.2,2.1-5.9a6.4,6.4,0,0,0-1.1-3.9,8.3,8.3,0,0,0-3-2.6,9.7,9.7,0,0,0-3.6-1Z"/><polygon class="cls-47" points="100.6 80.1 107.5 42.2 121.3 44.6 114.5 82.5 100.6 80.1"/><path class="cls-47" d="M142.1,82.1A18.6,18.6,0,0,1,129.4,77a18.6,18.6,0,0,1-5.2-8.2,17.9,17.9,0,0,1-.6-9.7,18.8,18.8,0,0,1,4.3-8.7,17.7,17.7,0,0,1,8.1-5.3,17,17,0,0,1,5.9-1h1.3a15.1,15.1,0,0,1,7.1,2.2,15.8,15.8,0,0,1,5.7,5.5l1.4,2.3L147.9,61H159l.4,2.3a15,15,0,0,1-.9,7.5,19.4,19.4,0,0,1-4.4,6.3,18.4,18.4,0,0,1-6.7,4A16,16,0,0,1,142.1,82.1Zm-.2-24a4.5,4.5,0,0,0-1.6.3,4.4,4.4,0,0,0-2.9,2.2,4.7,4.7,0,0,0,0,3.7,5.5,5.5,0,0,0,1.6,2.6,4.4,4.4,0,0,0,2,1.1h.9a3.5,3.5,0,0,0,1.4-.3,5.2,5.2,0,0,0,1.8-1,8.8,8.8,0,0,0,1.2-1.7,3,3,0,0,0,.3-1.2V61.2l-1.3-1.6a3.7,3.7,0,0,0-2-1.3Z"/><polygon class="cls-47" points="159.2 40.9 191.8 39.9 192.9 55.8 189.9 55.8 190.6 68.9 193.3 68.8 193.3 84.7 160.7 85.5 159.2 40.9"/><path class="cls-47" d="M75.5,89.6A84.3,84.3,0,0,1,65.4,89l-2.5-.3L63.4,40l1.6-.8a35.1,35.1,0,0,1,5.4-1.9,24.3,24.3,0,0,1,5.5-.7,28.8,28.8,0,0,1,14.2,3.8A28.6,28.6,0,0,1,101,50.5a26.7,26.7,0,0,1,4.2,14.6q0,12.3-8.4,18.6C91.5,87.6,84.3,89.6,75.5,89.6ZM79.7,71a10.3,10.3,0,0,0,5.6-1.9c1.4-1.3,2.1-3.2,2.1-5.9a6.4,6.4,0,0,0-1.1-3.9,7.5,7.5,0,0,0-3-2.6,9.7,9.7,0,0,0-3.6-1Z"/><polygon class="cls-47" points="100.6 79.9 107.4 41.9 121.3 44.3 114.4 82.3 100.6 79.9"/><path class="cls-47" d="M142,81.9a15.2,15.2,0,0,1-4.2-.6,18.1,18.1,0,0,1-8.4-4.5,18.5,18.5,0,0,1-5.3-8.2,18.2,18.2,0,0,1-.6-9.8,18.9,18.9,0,0,1,4.3-8.6,18.7,18.7,0,0,1,8.1-5.4,19.6,19.6,0,0,1,5.9-.9h1.3a16.5,16.5,0,0,1,7.1,2.3,15.8,15.8,0,0,1,5.7,5.5l1.4,2.3-9.5,6.7,11.1.2.4,2.3a13.5,13.5,0,0,1-.9,7.4A19.8,19.8,0,0,1,154,77a17.6,17.6,0,0,1-6.7,4A16,16,0,0,1,142,81.9Zm-.2-24-1.6.3a4,4,0,0,0-2.8,2.2,4.3,4.3,0,0,0-.1,3.7,6.1,6.1,0,0,0,1.6,2.6,4.4,4.4,0,0,0,2,1.1h.9a3.5,3.5,0,0,0,1.4-.3,4.2,4.2,0,0,0,1.8-1.1,8.3,8.3,0,0,0,1.2-1.6,3,3,0,0,0,.3-1.2V61l-1.3-1.7a4.3,4.3,0,0,0-2-1.2A3,3,0,0,0,141.8,57.9Z"/><polygon class="cls-47" points="159.1 40.7 191.7 39.7 192.8 55.6 189.8 55.6 190.5 68.7 193.2 68.6 193.2 84.5 160.6 85.2 159.1 40.7"/><path class="cls-47" d="M75.4,89.4a85.5,85.5,0,0,1-10.1-.6l-2.5-.3.5-48.7,1.6-.8a27,27,0,0,1,5.4-1.9,19.7,19.7,0,0,1,5.5-.7,30.1,30.1,0,0,1,25.1,13.9,26.4,26.4,0,0,1,4.2,14.5c0,8.3-2.8,14.5-8.4,18.7S84.2,89.4,75.4,89.4Zm4.2-18.6a10.8,10.8,0,0,0,5.6-1.9c1.4-1.3,2.2-3.2,2.2-6a6.2,6.2,0,0,0-1.2-3.8,7.2,7.2,0,0,0-3-2.7,9.5,9.5,0,0,0-3.6-.9Z"/><polygon class="cls-47" points="100.5 79.7 107.3 41.7 121.2 44.1 114.3 82.1 100.5 79.7"/><path class="cls-47" d="M141.9,81.6a15.1,15.1,0,0,1-4.2-.5,19.1,19.1,0,0,1-8.4-4.5,19.4,19.4,0,0,1-5.3-8.2,18.2,18.2,0,0,1-.6-9.8,18.9,18.9,0,0,1,4.3-8.6,18.7,18.7,0,0,1,8.1-5.4,19.6,19.6,0,0,1,5.9-.9H143a16.4,16.4,0,0,1,7.1,2.2,16.1,16.1,0,0,1,5.7,5.6l1.5,2.3-9.6,6.7h11.1l.4,2.4a13.6,13.6,0,0,1-.9,7.4,18.4,18.4,0,0,1-4.4,6.4,19.5,19.5,0,0,1-6.6,4A16.8,16.8,0,0,1,141.9,81.6Zm-.2-23.9-1.6.2a5.3,5.3,0,0,0-2.8,2.2,4.5,4.5,0,0,0-.1,3.8,6.1,6.1,0,0,0,1.6,2.6,4.4,4.4,0,0,0,2,1.1h.9a4,4,0,0,0,3.2-1.3,8.3,8.3,0,0,0,1.2-1.6,3,3,0,0,0,.3-1.2V60.8L145,59.1a4.3,4.3,0,0,0-2-1.2A2.7,2.7,0,0,0,141.7,57.7Z"/><polygon class="cls-47" points="159 40.5 191.6 39.5 192.7 55.4 189.7 55.4 190.4 68.5 193.1 68.4 193.1 84.3 160.6 85 159 40.5"/><path class="cls-47" d="M75.3,89.2a69.5,69.5,0,0,1-10.1-.7l-2.4-.3.5-48.6,1.5-.8a36.2,36.2,0,0,1,5.4-2,25.1,25.1,0,0,1,5.5-.6,30.1,30.1,0,0,1,25.1,13.9A26.2,26.2,0,0,1,105,64.6c0,8.2-2.8,14.5-8.4,18.6S84.1,89.2,75.3,89.2Zm4.3-18.6c2.4-.3,4.3-.9,5.5-2s2.2-3.1,2.2-5.9a6.8,6.8,0,0,0-1.1-3.8,7.4,7.4,0,0,0-3.1-2.7,7.6,7.6,0,0,0-3.5-.9Z"/><polygon class="cls-47" points="100.4 79.5 107.3 41.5 121.1 43.9 114.2 81.9 100.4 79.5"/><path class="cls-47" d="M141.8,81.4a15.1,15.1,0,0,1-4.2-.5,18.8,18.8,0,0,1-8.4-4.6,19.1,19.1,0,0,1-5.3-8.1,18.3,18.3,0,0,1-.6-9.8,18.9,18.9,0,0,1,4.3-8.6,18.7,18.7,0,0,1,8.1-5.4,19.6,19.6,0,0,1,5.9-.9h1.3a17.2,17.2,0,0,1,7.2,2.2,16.7,16.7,0,0,1,5.6,5.6l1.5,2.2-9.6,6.8h11.2l.3,2.4a13.7,13.7,0,0,1-.9,7.4,17.1,17.1,0,0,1-4.4,6.3,16.8,16.8,0,0,1-6.6,4A17,17,0,0,1,141.8,81.4Zm-.2-24-1.6.3a5.3,5.3,0,0,0-2.8,2.2,4.2,4.2,0,0,0,0,3.8,5.6,5.6,0,0,0,1.5,2.6,4.2,4.2,0,0,0,2,1h.9l1.5-.2a5,5,0,0,0,1.7-1.1,3.8,3.8,0,0,0,1.2-1.7,2.7,2.7,0,0,0,.3-1.2V60.6l-1.3-1.7a4.4,4.4,0,0,0-2-1.3Z"/><polygon class="cls-47" points="158.9 40.3 191.5 39.2 192.6 55.2 189.6 55.2 190.3 68.2 193 68.1 193 84.1 160.5 84.8 158.9 40.3"/><path class="cls-47" d="M75.3,89a67.7,67.7,0,0,1-10.1-.7L62.7,88l.5-48.7,1.6-.7a26.9,26.9,0,0,1,5.3-2,25.3,25.3,0,0,1,5.6-.6,29,29,0,0,1,14.2,3.7,31.3,31.3,0,0,1,10.9,10.2A27,27,0,0,1,105,64.4c0,8.2-2.9,14.5-8.5,18.6S84.1,89,75.3,89Zm4.2-18.7A9.2,9.2,0,0,0,85,68.4c1.5-1.2,2.2-3.2,2.2-5.9a7.1,7.1,0,0,0-1.1-3.9A7.9,7.9,0,0,0,83,56a9.3,9.3,0,0,0-3.5-1Z"/><polygon class="cls-47" points="100.3 79.3 107.2 41.3 121 43.7 114.1 81.6 100.3 79.3"/><path class="cls-47" d="M141.7,81.2a20.1,20.1,0,0,1-4.2-.5,18.8,18.8,0,0,1-8.4-4.6,20.1,20.1,0,0,1-5.3-8.1,18.3,18.3,0,0,1-.6-9.8,18.9,18.9,0,0,1,4.3-8.6,18.7,18.7,0,0,1,8.1-5.4,19.7,19.7,0,0,1,5.9-1h1.3a15.9,15.9,0,0,1,7.2,2.2,16.7,16.7,0,0,1,5.6,5.6l1.5,2.2-9.6,6.8h11.2l.3,2.4a13.7,13.7,0,0,1-.9,7.4,18,18,0,0,1-4.4,6.3,16.8,16.8,0,0,1-6.6,4A17,17,0,0,1,141.7,81.2Zm-.2-24-1.6.3a5.3,5.3,0,0,0-2.8,2.2,4.9,4.9,0,0,0,0,3.8,4.8,4.8,0,0,0,1.5,2.5,3.6,3.6,0,0,0,2.1,1.1h.8L143,67a4.2,4.2,0,0,0,1.7-1.1,3.8,3.8,0,0,0,1.2-1.7,3,3,0,0,0,.3-1.2V60.4l-1.3-1.7a3.4,3.4,0,0,0-2-1.3Z"/><polygon class="cls-47" points="158.9 40.1 191.4 39 192.5 54.9 189.6 55 190.2 68 192.9 67.9 192.9 83.8 160.4 84.6 158.9 40.1"/><path class="cls-47" d="M75.2,88.7a84.3,84.3,0,0,1-10.1-.6l-2.5-.3.5-48.7,1.6-.7a27.7,27.7,0,0,1,5.4-2,23.8,23.8,0,0,1,5.5-.6,29,29,0,0,1,14.2,3.7,30.5,30.5,0,0,1,10.9,10.2,26.2,26.2,0,0,1,4.2,14.5c0,8.2-2.9,14.5-8.5,18.6S84,88.7,75.2,88.7Zm4.2-18.6a9.9,9.9,0,0,0,5.5-1.9c1.5-1.2,2.2-3.2,2.2-5.9A7.1,7.1,0,0,0,86,58.4a7.9,7.9,0,0,0-3.1-2.6,9.3,9.3,0,0,0-3.5-1Z"/><polygon class="cls-47" points="100.2 79 107.1 41.1 120.9 43.5 114 81.4 100.2 79"/><path class="cls-47" d="M141.6,81a20.1,20.1,0,0,1-4.2-.5,18.8,18.8,0,0,1-8.4-4.6,19.7,19.7,0,0,1-5.3-8.2,20,20,0,0,1-.6-9.7,19.8,19.8,0,0,1,4.3-8.7,18.2,18.2,0,0,1,8.1-5.3,17.4,17.4,0,0,1,5.9-1h1.3a15.9,15.9,0,0,1,7.2,2.2,17.3,17.3,0,0,1,5.6,5.5l1.5,2.3-9.6,6.8h11.2l.3,2.4a13.7,13.7,0,0,1-.9,7.4,16.8,16.8,0,0,1-4.4,6.3,17.2,17.2,0,0,1-6.6,4A17,17,0,0,1,141.6,81Zm-.1-24a5.1,5.1,0,0,0-1.7.3,4.5,4.5,0,0,0-2.8,2.2,4.7,4.7,0,0,0,0,3.7,6.4,6.4,0,0,0,1.5,2.6,3.9,3.9,0,0,0,2.1,1.1h.8a4,4,0,0,0,1.5-.3,3.2,3.2,0,0,0,1.7-1,4.4,4.4,0,0,0,1.2-1.7,3,3,0,0,0,.3-1.2V60.2l-1.3-1.7a3.4,3.4,0,0,0-2-1.3Z"/><polygon class="cls-47" points="158.8 39.8 191.3 38.8 192.4 54.7 189.5 54.8 190.1 67.8 192.9 67.7 192.9 83.6 160.3 84.4 158.8 39.8"/><path class="cls-47" d="M75.1,88.5A84.3,84.3,0,0,1,65,87.9l-2.5-.3L63,38.9l1.6-.7a27.7,27.7,0,0,1,5.4-2,23.8,23.8,0,0,1,5.5-.6,29,29,0,0,1,14.2,3.7,30.2,30.2,0,0,1,10.9,10.1A26.7,26.7,0,0,1,104.8,64c0,8.2-2.9,14.4-8.4,18.6S83.9,88.5,75.1,88.5Zm4.2-18.6A9.9,9.9,0,0,0,84.8,68c1.5-1.3,2.2-3.2,2.2-5.9a7.1,7.1,0,0,0-1.1-3.9,7.9,7.9,0,0,0-3.1-2.6,8.8,8.8,0,0,0-3.5-1Z"/><polygon class="cls-47" points="100.1 78.8 107 40.9 120.8 43.2 114 81.2 100.1 78.8"/><path class="cls-47" d="M141.5,80.8a20.9,20.9,0,0,1-4.2-.5,20.4,20.4,0,0,1-8.4-4.6,19.2,19.2,0,0,1-5.2-8.2,18.2,18.2,0,0,1-.6-9.8,18.8,18.8,0,0,1,4.2-8.6,18,18,0,0,1,8.2-5.3,16.5,16.5,0,0,1,5.8-1h1.3a16.5,16.5,0,0,1,7.2,2.3,17.5,17.5,0,0,1,5.7,5.5l1.4,2.3-9.6,6.8h11.2l.4,2.3a14.5,14.5,0,0,1-1,7.4,18.1,18.1,0,0,1-4.3,6.4,18.4,18.4,0,0,1-6.7,4A17,17,0,0,1,141.5,80.8Zm-.1-24a4.5,4.5,0,0,0-1.6.3,4.4,4.4,0,0,0-2.9,2.2,4.7,4.7,0,0,0,0,3.7,7.1,7.1,0,0,0,1.5,2.6,4.7,4.7,0,0,0,2.1,1.1h.8a4,4,0,0,0,1.5-.3,4.9,4.9,0,0,0,2.9-2.7,4.8,4.8,0,0,0,.4-1.2V59.9l-1.3-1.7a4.7,4.7,0,0,0-2.1-1.2Z"/><polygon class="cls-47" points="158.7 39.6 191.2 38.6 192.4 54.5 189.4 54.5 190 67.6 192.8 67.5 192.8 83.4 160.2 84.1 158.7 39.6"/><path class="cls-47" d="M75,88.3a84.3,84.3,0,0,1-10.1-.6l-2.5-.3.5-48.7,1.6-.8A27,27,0,0,1,69.9,36a19.7,19.7,0,0,1,5.5-.7,30.7,30.7,0,0,1,25.1,13.9,26.7,26.7,0,0,1,4.2,14.6q0,12.3-8.4,18.6C90.9,86.3,83.8,88.3,75,88.3Zm4.2-18.6a10.3,10.3,0,0,0,5.6-1.9c1.4-1.3,2.1-3.2,2.1-5.9A6.2,6.2,0,0,0,85.8,58a8.1,8.1,0,0,0-3.1-2.7,10.6,10.6,0,0,0-3.5-.9Z"/><polygon class="cls-47" points="100 78.6 106.9 40.6 120.7 43 113.9 81 100 78.6"/><path class="cls-47" d="M141.4,80.6a15.1,15.1,0,0,1-4.1-.6,19,19,0,0,1-8.5-4.5,19.2,19.2,0,0,1-5.2-8.2,18.8,18.8,0,0,1,11.8-23.8,19.6,19.6,0,0,1,5.9-.9h1.3a16.4,16.4,0,0,1,7.1,2.2,16.9,16.9,0,0,1,5.7,5.6l1.4,2.3-9.5,6.7h11.1l.4,2.4a14.5,14.5,0,0,1-1,7.4,18.1,18.1,0,0,1-4.3,6.4,18.4,18.4,0,0,1-6.7,4A16.1,16.1,0,0,1,141.4,80.6Zm-.1-24-1.6.2a4.9,4.9,0,0,0-2.9,2.3,4.7,4.7,0,0,0,0,3.7,6.1,6.1,0,0,0,1.6,2.6,4.4,4.4,0,0,0,2,1.1h.8a3.9,3.9,0,0,0,1.5-.2,4.2,4.2,0,0,0,1.8-1.1,5.1,5.1,0,0,0,1.1-1.6,2.4,2.4,0,0,0,.4-1.2V59.7L144.6,58a4.8,4.8,0,0,0-2-1.2A3.2,3.2,0,0,0,141.3,56.6Z"/><polygon class="cls-47" points="158.6 39.4 191.2 38.4 192.3 54.3 189.3 54.3 190 67.4 192.7 67.3 192.7 83.2 160.1 83.9 158.6 39.4"/><path class="cls-47" d="M74.9,88.1a84.3,84.3,0,0,1-10.1-.6l-2.5-.4.5-48.6,1.6-.8a36.2,36.2,0,0,1,5.4-2,24.4,24.4,0,0,1,5.5-.6,30.1,30.1,0,0,1,14.2,3.7A29.7,29.7,0,0,1,100.4,49a26.2,26.2,0,0,1,4.2,14.5c0,8.2-2.8,14.5-8.4,18.6S83.7,88.1,74.9,88.1Zm4.2-18.6a10.3,10.3,0,0,0,5.6-2c1.4-1.2,2.1-3.1,2.1-5.9a6.1,6.1,0,0,0-1.1-3.8,7.7,7.7,0,0,0-3-2.7,8,8,0,0,0-3.6-.9Z"/><polygon class="cls-47" points="99.9 78.4 106.8 40.4 120.6 42.8 113.8 80.8 99.9 78.4"/><path class="cls-47" d="M141.4,80.3a15.1,15.1,0,0,1-4.2-.5,19.2,19.2,0,0,1-8.5-4.6,19.3,19.3,0,0,1-5.8-17.9,18.9,18.9,0,0,1,4.3-8.6,18.7,18.7,0,0,1,8.1-5.4,19.6,19.6,0,0,1,5.9-.9h1.3a16.4,16.4,0,0,1,7.1,2.2,16.1,16.1,0,0,1,5.7,5.6l1.4,2.2-9.5,6.8h11.1l.4,2.4a14.7,14.7,0,0,1-.9,7.4,18.4,18.4,0,0,1-4.4,6.3,18.7,18.7,0,0,1-6.7,4.1A18.9,18.9,0,0,1,141.4,80.3Zm-.2-24a4.5,4.5,0,0,0-1.6.3,5.2,5.2,0,0,0-2.9,2.2,4.9,4.9,0,0,0,0,3.8,6.8,6.8,0,0,0,1.6,2.6,4.2,4.2,0,0,0,2,1h.9l1.4-.2a5.4,5.4,0,0,0,1.8-1.1,6.6,6.6,0,0,0,1.2-1.7,2.7,2.7,0,0,0,.3-1.2V59.5l-1.3-1.7a4.4,4.4,0,0,0-2-1.3Z"/><polygon class="cls-47" points="158.5 39.2 191.1 38.1 192.2 54.1 189.2 54.1 189.9 67.2 192.6 67 192.6 83 160 83.7 158.5 39.2"/><path class="cls-47" d="M74.8,87.9a67.7,67.7,0,0,1-10.1-.7l-2.5-.3.5-48.6,1.6-.8a27.7,27.7,0,0,1,5.4-2,24.4,24.4,0,0,1,5.5-.6,28.7,28.7,0,0,1,14.2,3.7,29.7,29.7,0,0,1,10.9,10.2,26.2,26.2,0,0,1,4.2,14.5c0,8.2-2.8,14.5-8.4,18.6S83.6,87.9,74.8,87.9ZM79,69.2a9.5,9.5,0,0,0,5.6-1.9c1.4-1.2,2.1-3.1,2.1-5.9a5.9,5.9,0,0,0-1.1-3.8,7.7,7.7,0,0,0-3-2.7A8,8,0,0,0,79,54Z"/><polygon class="cls-47" points="99.9 78.2 106.7 40.2 120.6 42.6 113.7 80.5 99.9 78.2"/><path class="cls-47" d="M141.3,80.1a20.1,20.1,0,0,1-4.2-.5,19.8,19.8,0,0,1-13.7-12.7,18.3,18.3,0,0,1-.6-9.8,18.9,18.9,0,0,1,4.3-8.6,18.7,18.7,0,0,1,8.1-5.4,19.7,19.7,0,0,1,5.9-1h1.3a16.4,16.4,0,0,1,7.1,2.2,16.1,16.1,0,0,1,5.7,5.6l1.4,2.2L147.1,59h11.1l.4,2.4a13.7,13.7,0,0,1-.9,7.4,18.4,18.4,0,0,1-4.4,6.3,16.4,16.4,0,0,1-6.7,4A16,16,0,0,1,141.3,80.1Zm-.2-24-1.6.3a4.6,4.6,0,0,0-2.8,2.2,4.5,4.5,0,0,0-.1,3.8,5.7,5.7,0,0,0,1.6,2.5,3.7,3.7,0,0,0,2,1.1h.9l1.4-.2a5.4,5.4,0,0,0,1.8-1.1,6.6,6.6,0,0,0,1.2-1.7,2.7,2.7,0,0,0,.3-1.2V59.3l-1.3-1.7a3.7,3.7,0,0,0-2-1.3Z"/><polygon class="cls-47" points="158.4 39 191 37.9 192.1 53.8 189.1 53.9 189.8 66.9 192.5 66.8 192.5 82.7 159.9 83.5 158.4 39"/><path class="cls-47" d="M74.7,87.7A85.7,85.7,0,0,1,64.6,87l-2.5-.3L62.6,38l1.6-.7a27.7,27.7,0,0,1,5.4-2,24.4,24.4,0,0,1,5.5-.6,28.7,28.7,0,0,1,14.2,3.7,29.7,29.7,0,0,1,10.9,10.2,26.2,26.2,0,0,1,4.2,14.5c0,8.2-2.8,14.5-8.4,18.6S83.5,87.7,74.7,87.7ZM78.9,69c2.5-.2,4.4-.8,5.6-1.9s2.2-3.2,2.2-5.9a6.5,6.5,0,0,0-1.2-3.9,7,7,0,0,0-3-2.6,9.7,9.7,0,0,0-3.6-1Z"/><polygon class="cls-47" points="99.8 77.9 106.6 40 120.5 42.4 113.6 80.3 99.8 77.9"/><path class="cls-47" d="M141.2,79.9a20.1,20.1,0,0,1-4.2-.5,18.3,18.3,0,0,1-8.4-4.6,18.8,18.8,0,0,1-5.3-8.2A18.6,18.6,0,0,1,127,48.3a18.9,18.9,0,0,1,14-6.4h1.3a15.1,15.1,0,0,1,7.1,2.2,16.6,16.6,0,0,1,5.7,5.5l1.5,2.3L147,58.8h11.1l.4,2.4a13.7,13.7,0,0,1-.9,7.4,18.6,18.6,0,0,1-11,10.3A17,17,0,0,1,141.2,79.9Zm-.2-24-1.6.3a4.3,4.3,0,0,0-2.9,6,5.7,5.7,0,0,0,1.6,2.5,3.7,3.7,0,0,0,2,1.1h.9a4,4,0,0,0,1.5-.3,3.7,3.7,0,0,0,1.7-1,8.8,8.8,0,0,0,1.2-1.7,3,3,0,0,0,.3-1.2V59.1l-1.3-1.7a3.7,3.7,0,0,0-2-1.3Z"/><polygon class="cls-47" points="158.3 38.8 190.9 37.7 192 53.6 189 53.7 189.7 66.7 192.4 66.6 192.4 82.5 159.9 83.3 158.3 38.8"/><path class="cls-47" d="M74.6,87.4a86.8,86.8,0,0,1-10.1-.6l-2.4-.3.5-48.7,1.5-.7a27.7,27.7,0,0,1,5.4-2,25.1,25.1,0,0,1,5.5-.6,28.4,28.4,0,0,1,14.2,3.7,29.4,29.4,0,0,1,10.9,10.1,26.7,26.7,0,0,1,4.2,14.6c0,8.2-2.8,14.5-8.4,18.6S83.4,87.4,74.6,87.4Zm4.3-18.6a9.9,9.9,0,0,0,5.5-1.9c1.5-1.3,2.2-3.2,2.2-5.9a7.1,7.1,0,0,0-1.1-3.9,7.9,7.9,0,0,0-3.1-2.6,9.3,9.3,0,0,0-3.5-1Z"/><polygon class="cls-47" points="99.7 77.7 106.6 39.8 120.4 42.1 113.5 80.1 99.7 77.7"/><path class="cls-47" d="M141.1,79.7a20.1,20.1,0,0,1-4.2-.5,19.8,19.8,0,0,1-8.4-4.6,19.4,19.4,0,0,1-5.3-8.2,17.9,17.9,0,0,1-.6-9.7,18.8,18.8,0,0,1,4.3-8.7,17.7,17.7,0,0,1,8.1-5.3,17,17,0,0,1,5.9-1h1.3a17.4,17.4,0,0,1,7.2,2.3,16.3,16.3,0,0,1,5.6,5.5l1.5,2.3-9.6,6.8h11.2l.3,2.3a13.5,13.5,0,0,1-.9,7.4,17.5,17.5,0,0,1-4.4,6.4,18,18,0,0,1-6.6,4A17,17,0,0,1,141.1,79.7Zm-.2-24-1.6.3a4.5,4.5,0,0,0-2.8,2.2,4,4,0,0,0,0,3.7,5.1,5.1,0,0,0,1.5,2.6,4.4,4.4,0,0,0,2,1.1h.9l1.5-.3a4.8,4.8,0,0,0,1.7-1,4.4,4.4,0,0,0,1.2-1.7,3,3,0,0,0,.3-1.2V58.8l-1.3-1.6a3.7,3.7,0,0,0-2-1.3Z"/><polygon class="cls-47" points="158.2 38.5 190.8 37.5 191.9 53.4 188.9 53.4 189.6 66.5 192.3 66.4 192.3 82.3 159.8 83 158.2 38.5"/><path class="cls-47" d="M74.6,87.2a84.3,84.3,0,0,1-10.1-.6L62,86.3l.5-48.7,1.6-.8a26.2,26.2,0,0,1,5.3-1.9,25.2,25.2,0,0,1,5.6-.7A29.1,29.1,0,0,1,89.2,38a30.1,30.1,0,0,1,10.9,10.1,27.6,27.6,0,0,1,4.2,14.6c0,8.2-2.9,14.4-8.5,18.6S83.4,87.2,74.6,87.2Zm4.2-18.6a9.9,9.9,0,0,0,5.5-1.9c1.5-1.3,2.2-3.2,2.2-5.9a6.9,6.9,0,0,0-1.1-3.9,8.1,8.1,0,0,0-3.1-2.7,11.3,11.3,0,0,0-3.5-.9Z"/><polygon class="cls-47" points="99.6 77.5 106.5 39.5 120.3 41.9 113.4 79.9 99.6 77.5"/><path class="cls-47" d="M141,79.5a15.2,15.2,0,0,1-4.2-.6,18.6,18.6,0,0,1-8.4-4.5,20.4,20.4,0,0,1-5.3-8.2,18.2,18.2,0,0,1-.6-9.8,18.9,18.9,0,0,1,4.3-8.6,18.7,18.7,0,0,1,8.1-5.4,19.6,19.6,0,0,1,5.9-.9h1.3a17.2,17.2,0,0,1,7.2,2.2,17.6,17.6,0,0,1,5.6,5.6l1.5,2.3-9.6,6.7,11.2.2.3,2.3a13.5,13.5,0,0,1-.9,7.4,18.4,18.4,0,0,1-4.4,6.4,18,18,0,0,1-6.6,4A17,17,0,0,1,141,79.5Zm-.2-24-1.6.3a4.5,4.5,0,0,0-2.8,2.2,4.7,4.7,0,0,0,0,3.7,5.1,5.1,0,0,0,1.5,2.6,4.3,4.3,0,0,0,2.1,1.1h.8a3.9,3.9,0,0,0,1.5-.2,3.4,3.4,0,0,0,1.7-1.1,4.2,4.2,0,0,0,1.2-1.6,3,3,0,0,0,.3-1.2V58.6l-1.3-1.7a3.8,3.8,0,0,0-2-1.2A2.7,2.7,0,0,0,140.8,55.5Z"/><polygon class="cls-47" points="158.2 38.3 190.7 37.3 191.8 53.2 188.9 53.2 189.5 66.3 192.2 66.2 192.2 82.1 159.7 82.8 158.2 38.3"/><path class="cls-47" d="M74.5,87a84.3,84.3,0,0,1-10.1-.6L61.9,86l.5-48.6,1.6-.8a27,27,0,0,1,5.4-1.9,19.3,19.3,0,0,1,5.5-.7,30.1,30.1,0,0,1,14.2,3.7A30.5,30.5,0,0,1,100,47.9a26.2,26.2,0,0,1,4.2,14.5c0,8.3-2.9,14.5-8.5,18.7S83.3,87,74.5,87Zm4.2-18.6c2.4-.3,4.3-.9,5.5-2s2.2-3.1,2.2-5.9a6.8,6.8,0,0,0-1.1-3.8A8.1,8.1,0,0,0,82.2,54a9.1,9.1,0,0,0-3.5-.9Z"/><polygon class="cls-47" points="99.5 77.3 106.4 39.3 120.2 41.7 113.3 79.7 99.5 77.3"/><path class="cls-47" d="M140.9,79.2a15.1,15.1,0,0,1-4.2-.5,19.6,19.6,0,0,1-8.4-4.5,19.3,19.3,0,0,1-5.9-18,20,20,0,0,1,4.3-8.6,19.3,19.3,0,0,1,8.1-5.4,20.1,20.1,0,0,1,5.9-.9H142a17.2,17.2,0,0,1,7.2,2.2,16.7,16.7,0,0,1,5.6,5.6l1.5,2.2-9.6,6.8h11.2l.3,2.4a13.6,13.6,0,0,1-.9,7.4,17.1,17.1,0,0,1-4.4,6.4,18.6,18.6,0,0,1-6.6,4A20.2,20.2,0,0,1,140.9,79.2Zm-.1-23.9a5,5,0,0,0-1.7.2,5.3,5.3,0,0,0-2.8,2.2,4.9,4.9,0,0,0,0,3.8,8.1,8.1,0,0,0,1.5,2.6,3.7,3.7,0,0,0,2.1,1h.8l1.5-.2a3.4,3.4,0,0,0,1.7-1.1,4.2,4.2,0,0,0,1.2-1.6,3.4,3.4,0,0,0,.3-1.2V58.4L144,56.7a3.8,3.8,0,0,0-2-1.2A2.5,2.5,0,0,0,140.8,55.3Z"/><polygon class="cls-47" points="158.1 38.1 190.6 37 191.7 53 188.8 53 189.4 66.1 192.2 66 192.2 81.9 159.6 82.6 158.1 38.1"/><path class="cls-47" d="M74.4,86.8a67.7,67.7,0,0,1-10.1-.7l-2.5-.3.5-48.6,1.6-.8a27.7,27.7,0,0,1,5.4-2,23.8,23.8,0,0,1,5.5-.6A30.1,30.1,0,0,1,89,37.5,30.5,30.5,0,0,1,99.9,47.7a26.2,26.2,0,0,1,4.2,14.5c0,8.2-2.9,14.5-8.4,18.6S83.2,86.8,74.4,86.8Zm4.2-18.7a9.2,9.2,0,0,0,5.5-1.9c1.5-1.2,2.2-3.1,2.2-5.9a6.6,6.6,0,0,0-1.1-3.8,8.4,8.4,0,0,0-6.6-3.6Z"/><polygon class="cls-47" points="99.4 77.1 106.3 39.1 120.1 41.5 113.3 79.5 99.4 77.1"/><path class="cls-47" d="M140.8,79a20.9,20.9,0,0,1-4.2-.5,19.4,19.4,0,0,1-8.4-4.6,18.9,18.9,0,0,1-5.2-8.1,18.3,18.3,0,0,1-.6-9.8,18.8,18.8,0,0,1,4.2-8.6,19.2,19.2,0,0,1,14-6.4h1.3a16.4,16.4,0,0,1,7.2,2.2,17.9,17.9,0,0,1,5.7,5.6l1.4,2.2-9.6,6.8h11.2l.4,2.4a14.8,14.8,0,0,1-1,7.4,16.9,16.9,0,0,1-4.3,6.3A17.9,17.9,0,0,1,140.8,79Zm-.1-24a4.5,4.5,0,0,0-1.6.3,5.2,5.2,0,0,0-2.9,2.2,4.9,4.9,0,0,0,0,3.8,6.6,6.6,0,0,0,1.5,2.5,3.9,3.9,0,0,0,2.1,1.1h.8l1.5-.2a5.4,5.4,0,0,0,1.8-1.1A4.5,4.5,0,0,0,145,62a3.8,3.8,0,0,0,.4-1.2V58.2L144,56.5a4.7,4.7,0,0,0-2.1-1.3Z"/><polygon class="cls-47" points="158 37.9 190.5 36.8 191.7 52.7 188.7 52.8 189.3 65.8 192.1 65.7 192.1 81.7 159.5 82.4 158 37.9"/><path class="cls-47" d="M74.3,86.6a84.2,84.2,0,0,1-10.1-.7l-2.5-.3.5-48.7,1.6-.7a27.7,27.7,0,0,1,5.4-2,24.4,24.4,0,0,1,5.5-.6,29,29,0,0,1,14.2,3.7A30.5,30.5,0,0,1,99.8,47.5,26.2,26.2,0,0,1,104,62c0,8.2-2.8,14.5-8.4,18.6S83.1,86.6,74.3,86.6Zm4.2-18.7A9.5,9.5,0,0,0,84.1,66c1.4-1.2,2.1-3.2,2.1-5.9a6.4,6.4,0,0,0-1.1-3.9A7.9,7.9,0,0,0,82,53.6a8.8,8.8,0,0,0-3.5-1Z"/><polygon class="cls-47" points="99.3 76.8 106.2 38.9 120 41.3 113.2 79.2 99.3 76.8"/><path class="cls-47" d="M140.7,78.8a19.9,19.9,0,0,1-4.1-.5,19.2,19.2,0,0,1-8.5-4.6,18.9,18.9,0,0,1-5.2-8.1,18.3,18.3,0,0,1-.6-9.8,17.6,17.6,0,0,1,4.3-8.6,17.3,17.3,0,0,1,8.1-5.4,17,17,0,0,1,5.9-1h1.3a15.1,15.1,0,0,1,7.1,2.2,17.6,17.6,0,0,1,5.7,5.5l1.4,2.3-9.5,6.8h11.1l.4,2.4a14.8,14.8,0,0,1-1,7.4,17.7,17.7,0,0,1-4.3,6.3,17.1,17.1,0,0,1-6.7,4A16.1,16.1,0,0,1,140.7,78.8Zm-.1-24a4.5,4.5,0,0,0-1.6.3,4.4,4.4,0,0,0-2.9,2.2,4.9,4.9,0,0,0,0,3.8,5.7,5.7,0,0,0,1.6,2.5,3.7,3.7,0,0,0,2,1.1h.8a5.8,5.8,0,0,0,3.3-1.3,5.5,5.5,0,0,0,1.1-1.7,2.4,2.4,0,0,0,.4-1.2V58l-1.3-1.7a4.1,4.1,0,0,0-2-1.3Z"/><polygon class="cls-47" points="157.9 37.7 190.5 36.6 191.6 52.5 188.6 52.6 189.3 65.6 192 65.5 192 81.4 159.4 82.2 157.9 37.7"/><path class="cls-47" d="M74.2,86.3a84.3,84.3,0,0,1-10.1-.6l-2.5-.3.5-48.7,1.6-.7a27.7,27.7,0,0,1,5.4-2,24.4,24.4,0,0,1,5.5-.6,29,29,0,0,1,14.2,3.7A29.4,29.4,0,0,1,99.7,47.2a26.7,26.7,0,0,1,4.2,14.6c0,8.2-2.8,14.5-8.4,18.6S83,86.3,74.2,86.3Zm4.2-18.6A10.3,10.3,0,0,0,84,65.8c1.4-1.3,2.1-3.2,2.1-5.9A6.4,6.4,0,0,0,85,56a8.3,8.3,0,0,0-3-2.6,9.7,9.7,0,0,0-3.6-1Z"/><polygon class="cls-47" points="99.2 76.6 106.1 38.7 119.9 41.1 113.1 79 99.2 76.6"/><path class="cls-47" d="M140.7,78.6A18.6,18.6,0,0,1,128,73.5a18.6,18.6,0,0,1-5.2-8.2,17.9,17.9,0,0,1-.6-9.7,18.8,18.8,0,0,1,4.3-8.7,17.7,17.7,0,0,1,8.1-5.3,17,17,0,0,1,5.9-1h1.3a15.1,15.1,0,0,1,7.1,2.2,15.8,15.8,0,0,1,5.7,5.5l1.4,2.3-9.5,6.8h11.1l.4,2.3a15,15,0,0,1-.9,7.5,19.4,19.4,0,0,1-4.4,6.3,18.4,18.4,0,0,1-6.7,4A16,16,0,0,1,140.7,78.6Zm-.2-24a4.5,4.5,0,0,0-1.6.3,4.4,4.4,0,0,0-2.9,2.2,4.7,4.7,0,0,0,0,3.7,5.5,5.5,0,0,0,1.6,2.6,4.4,4.4,0,0,0,2,1.1h.9a3.5,3.5,0,0,0,1.4-.3,5.2,5.2,0,0,0,1.8-1,8.8,8.8,0,0,0,1.2-1.7,3,3,0,0,0,.3-1.2V57.7l-1.3-1.6a3.7,3.7,0,0,0-2-1.3Z"/><polygon class="cls-47" points="157.8 37.4 190.4 36.4 191.5 52.3 188.5 52.3 189.2 65.4 191.9 65.3 191.9 81.2 159.3 82 157.8 37.4"/><path class="cls-47" d="M74.1,86.1A84.3,84.3,0,0,1,64,85.5l-2.5-.3L62,36.5l1.6-.8A35.1,35.1,0,0,1,69,33.8a24.3,24.3,0,0,1,5.5-.7,28.8,28.8,0,0,1,14.2,3.8A28.6,28.6,0,0,1,99.6,47a26.7,26.7,0,0,1,4.2,14.6q0,12.3-8.4,18.6C90.1,84.1,82.9,86.1,74.1,86.1Zm4.2-18.6a10.3,10.3,0,0,0,5.6-1.9c1.4-1.3,2.1-3.2,2.1-5.9a6.4,6.4,0,0,0-1.1-3.9,7.5,7.5,0,0,0-3-2.6,9.7,9.7,0,0,0-3.6-1Z"/><polygon class="cls-47" points="99.2 76.4 106 38.4 119.9 40.8 113 78.8 99.2 76.4"/><path class="cls-47" d="M140.6,78.4a15.2,15.2,0,0,1-4.2-.6,18.1,18.1,0,0,1-8.4-4.5,18.5,18.5,0,0,1-5.3-8.2,18.2,18.2,0,0,1-.6-9.8,18.9,18.9,0,0,1,4.3-8.6,18.7,18.7,0,0,1,8.1-5.4,19.6,19.6,0,0,1,5.9-.9h1.3a16.5,16.5,0,0,1,7.1,2.3,15.8,15.8,0,0,1,5.7,5.5l1.4,2.3-9.5,6.7,11.1.2.4,2.3a13.5,13.5,0,0,1-.9,7.4,19.8,19.8,0,0,1-4.4,6.4,17.6,17.6,0,0,1-6.7,4A16,16,0,0,1,140.6,78.4Zm-.2-24-1.6.3a4,4,0,0,0-2.8,2.2,4.3,4.3,0,0,0-.1,3.7,6.1,6.1,0,0,0,1.6,2.6,4.4,4.4,0,0,0,2,1.1h.9a3.5,3.5,0,0,0,1.4-.3,4.2,4.2,0,0,0,1.8-1.1,8.3,8.3,0,0,0,1.2-1.6,3,3,0,0,0,.3-1.2V57.5l-1.3-1.7a4.3,4.3,0,0,0-2-1.2A3,3,0,0,0,140.4,54.4Z"/><polygon class="cls-47" points="157.7 37.2 190.3 36.2 191.4 52.1 188.4 52.1 189.1 65.2 191.8 65.1 191.8 81 159.2 81.7 157.7 37.2"/><path class="cls-47" d="M74,85.9a85.5,85.5,0,0,1-10.1-.6L61.4,85l.5-48.7,1.6-.8a27,27,0,0,1,5.4-1.9,19.7,19.7,0,0,1,5.5-.7A30.1,30.1,0,0,1,99.5,46.8a26.4,26.4,0,0,1,4.2,14.5c0,8.3-2.8,14.5-8.4,18.7S82.8,85.9,74,85.9Zm4.2-18.6a10.8,10.8,0,0,0,5.6-1.9c1.4-1.3,2.2-3.2,2.2-6a6.2,6.2,0,0,0-1.2-3.8,7.2,7.2,0,0,0-3-2.7,9.5,9.5,0,0,0-3.6-.9Z"/><polygon class="cls-47" points="99.1 76.2 105.9 38.2 119.8 40.6 112.9 78.6 99.1 76.2"/><path class="cls-47" d="M140.5,78.1a15.1,15.1,0,0,1-4.2-.5,19.1,19.1,0,0,1-8.4-4.5,19.4,19.4,0,0,1-5.3-8.2,18.2,18.2,0,0,1-.6-9.8,18.9,18.9,0,0,1,4.3-8.6,18.7,18.7,0,0,1,8.1-5.4,19.6,19.6,0,0,1,5.9-.9h1.3a16.4,16.4,0,0,1,7.1,2.2,16.1,16.1,0,0,1,5.7,5.6l1.5,2.3L146.3,57h11.1l.4,2.4a13.6,13.6,0,0,1-.9,7.4,18.4,18.4,0,0,1-4.4,6.4,19.5,19.5,0,0,1-6.6,4A16.8,16.8,0,0,1,140.5,78.1Zm-.2-23.9-1.6.2a5.3,5.3,0,0,0-2.8,2.2,4.5,4.5,0,0,0-.1,3.8,6.1,6.1,0,0,0,1.6,2.6,4.4,4.4,0,0,0,2,1.1h.9a4,4,0,0,0,3.2-1.3,8.3,8.3,0,0,0,1.2-1.6A3,3,0,0,0,145,60V57.3l-1.3-1.7a4.3,4.3,0,0,0-2-1.2A2.7,2.7,0,0,0,140.3,54.2Z"/><polygon class="cls-47" points="157.6 37 190.2 36 191.3 51.9 188.3 51.9 189 65 191.7 64.9 191.7 80.8 159.2 81.5 157.6 37"/><path class="cls-47" d="M73.9,85.7A69.5,69.5,0,0,1,63.8,85l-2.4-.3.5-48.6,1.5-.8a36.2,36.2,0,0,1,5.4-2,25.1,25.1,0,0,1,5.5-.6A30.1,30.1,0,0,1,99.4,46.6a26.2,26.2,0,0,1,4.2,14.5c0,8.2-2.8,14.5-8.4,18.6S82.7,85.7,73.9,85.7Zm4.3-18.6c2.4-.3,4.3-.9,5.5-2s2.2-3.1,2.2-5.9a6.8,6.8,0,0,0-1.1-3.8,7.4,7.4,0,0,0-3.1-2.7,7.6,7.6,0,0,0-3.5-.9Z"/><polygon class="cls-47" points="99 76 105.9 38 119.7 40.4 112.8 78.4 99 76"/><path class="cls-47" d="M140.4,77.9a15.1,15.1,0,0,1-4.2-.5,18.8,18.8,0,0,1-8.4-4.6,19.1,19.1,0,0,1-5.3-8.1,18.3,18.3,0,0,1-.6-9.8,18.9,18.9,0,0,1,4.3-8.6,18.7,18.7,0,0,1,8.1-5.4,19.6,19.6,0,0,1,5.9-.9h1.3a17.2,17.2,0,0,1,7.2,2.2,16.7,16.7,0,0,1,5.6,5.6l1.5,2.2-9.6,6.8h11.2l.3,2.4a13.7,13.7,0,0,1-.9,7.4,17.1,17.1,0,0,1-4.4,6.3,16.8,16.8,0,0,1-6.6,4A17,17,0,0,1,140.4,77.9Zm-.2-24-1.6.3a5.3,5.3,0,0,0-2.8,2.2,4.2,4.2,0,0,0,0,3.8,5.6,5.6,0,0,0,1.5,2.6,4.2,4.2,0,0,0,2,1h.9l1.5-.2a5,5,0,0,0,1.7-1.1,3.8,3.8,0,0,0,1.2-1.7,2.7,2.7,0,0,0,.3-1.2V57.1l-1.3-1.7a4.4,4.4,0,0,0-2-1.3Z"/><polygon class="cls-47" points="157.5 36.8 190.1 35.7 191.2 51.7 188.2 51.7 188.9 64.7 191.6 64.6 191.6 80.6 159.1 81.3 157.5 36.8"/><path class="cls-47" d="M73.9,85.5a67.7,67.7,0,0,1-10.1-.7l-2.5-.3.5-48.7,1.6-.7a26.9,26.9,0,0,1,5.3-2,25.3,25.3,0,0,1,5.6-.6,29,29,0,0,1,14.2,3.7A31.3,31.3,0,0,1,99.4,46.4a27,27,0,0,1,4.2,14.5c0,8.2-2.9,14.5-8.5,18.6S82.7,85.5,73.9,85.5Zm4.2-18.7a9.2,9.2,0,0,0,5.5-1.9c1.5-1.2,2.2-3.2,2.2-5.9a7.1,7.1,0,0,0-1.1-3.9,7.9,7.9,0,0,0-3.1-2.6,9.3,9.3,0,0,0-3.5-1Z"/><polygon class="cls-47" points="98.9 75.8 105.8 37.8 119.6 40.2 112.7 78.1 98.9 75.8"/><path class="cls-47" d="M140.3,77.7a20.1,20.1,0,0,1-4.2-.5,18.8,18.8,0,0,1-8.4-4.6,20.1,20.1,0,0,1-5.3-8.1,18.3,18.3,0,0,1-.6-9.8,18.9,18.9,0,0,1,4.3-8.6,18.7,18.7,0,0,1,8.1-5.4,19.7,19.7,0,0,1,5.9-1h1.3a15.9,15.9,0,0,1,7.2,2.2,16.7,16.7,0,0,1,5.6,5.6l1.5,2.2-9.6,6.8h11.2l.3,2.4a13.7,13.7,0,0,1-.9,7.4,18,18,0,0,1-4.4,6.3,16.8,16.8,0,0,1-6.6,4A17,17,0,0,1,140.3,77.7Zm-.2-24-1.6.3a5.3,5.3,0,0,0-2.8,2.2,4.9,4.9,0,0,0,0,3.8,4.8,4.8,0,0,0,1.5,2.5,3.6,3.6,0,0,0,2.1,1.1h.8l1.5-.2a4.2,4.2,0,0,0,1.7-1.1,3.8,3.8,0,0,0,1.2-1.7,3,3,0,0,0,.3-1.2V56.9l-1.3-1.7a3.4,3.4,0,0,0-2-1.3Z"/><polygon class="cls-47" points="157.5 36.6 190 35.5 191.1 51.4 188.2 51.5 188.8 64.5 191.5 64.4 191.5 80.3 159 81.1 157.5 36.6"/><path class="cls-47" d="M73.8,85.2a84.3,84.3,0,0,1-10.1-.6l-2.5-.3.5-48.7,1.6-.7a27.7,27.7,0,0,1,5.4-2,23.8,23.8,0,0,1,5.5-.6A29,29,0,0,1,88.4,36,30.5,30.5,0,0,1,99.3,46.2a26.2,26.2,0,0,1,4.2,14.5c0,8.2-2.9,14.5-8.5,18.6S82.6,85.2,73.8,85.2ZM78,66.6a9.9,9.9,0,0,0,5.5-1.9c1.5-1.2,2.2-3.2,2.2-5.9a7.1,7.1,0,0,0-1.1-3.9,7.9,7.9,0,0,0-3.1-2.6,9.3,9.3,0,0,0-3.5-1Z"/><polygon class="cls-47" points="98.8 75.5 105.7 37.6 119.5 40 112.6 77.9 98.8 75.5"/><path class="cls-47" d="M140.2,77.5A20.1,20.1,0,0,1,136,77a18.8,18.8,0,0,1-8.4-4.6,19.7,19.7,0,0,1-5.3-8.2,20,20,0,0,1-.6-9.7,19.8,19.8,0,0,1,4.3-8.7,18.2,18.2,0,0,1,8.1-5.3,17.4,17.4,0,0,1,5.9-1h1.3a15.9,15.9,0,0,1,7.2,2.2,17.3,17.3,0,0,1,5.6,5.5l1.5,2.3L146,56.4h11.2l.3,2.4a13.7,13.7,0,0,1-.9,7.4,16.8,16.8,0,0,1-4.4,6.3,17.2,17.2,0,0,1-6.6,4A17,17,0,0,1,140.2,77.5Zm-.1-24a5.1,5.1,0,0,0-1.7.3,4.5,4.5,0,0,0-2.8,2.2,4.7,4.7,0,0,0,0,3.7,6.4,6.4,0,0,0,1.5,2.6,3.9,3.9,0,0,0,2.1,1.1h.8a4,4,0,0,0,1.5-.3,3.2,3.2,0,0,0,1.7-1,4.4,4.4,0,0,0,1.2-1.7,3,3,0,0,0,.3-1.2V56.7L143.3,55a3.4,3.4,0,0,0-2-1.3Z"/><polygon class="cls-47" points="157.4 36.3 189.9 35.3 191 51.2 188.1 51.3 188.7 64.3 191.5 64.2 191.5 80.1 158.9 80.9 157.4 36.3"/><path class="cls-47" d="M73.7,85a84.3,84.3,0,0,1-10.1-.6l-2.5-.3.5-48.7,1.6-.7a27.7,27.7,0,0,1,5.4-2,23.8,23.8,0,0,1,5.5-.6,29,29,0,0,1,14.2,3.7A30.2,30.2,0,0,1,99.2,45.9a26.7,26.7,0,0,1,4.2,14.6c0,8.2-2.9,14.4-8.4,18.6S82.5,85,73.7,85Zm4.2-18.6a9.9,9.9,0,0,0,5.5-1.9c1.5-1.3,2.2-3.2,2.2-5.9a7.1,7.1,0,0,0-1.1-3.9,7.9,7.9,0,0,0-3.1-2.6,8.8,8.8,0,0,0-3.5-1Z"/><polygon class="cls-47" points="98.7 75.3 105.6 37.4 119.4 39.7 112.6 77.7 98.7 75.3"/><path class="cls-47" d="M140.1,77.3a20.9,20.9,0,0,1-4.2-.5,20.4,20.4,0,0,1-8.4-4.6,19.2,19.2,0,0,1-5.2-8.2,18.2,18.2,0,0,1-.6-9.8,18.8,18.8,0,0,1,4.2-8.6,18,18,0,0,1,8.2-5.3,16.5,16.5,0,0,1,5.8-1h1.3a16.5,16.5,0,0,1,7.2,2.3,17.5,17.5,0,0,1,5.7,5.5l1.4,2.3-9.6,6.8h11.2l.4,2.3a14.5,14.5,0,0,1-1,7.4,18.1,18.1,0,0,1-4.3,6.4,18.4,18.4,0,0,1-6.7,4A17,17,0,0,1,140.1,77.3Zm-.1-24a4.5,4.5,0,0,0-1.6.3,4.4,4.4,0,0,0-2.9,2.2,4.7,4.7,0,0,0,0,3.7,7.1,7.1,0,0,0,1.5,2.6,4.7,4.7,0,0,0,2.1,1.1h.8a4,4,0,0,0,1.5-.3,4.9,4.9,0,0,0,2.9-2.7,4.8,4.8,0,0,0,.4-1.2V56.4l-1.3-1.7a4.7,4.7,0,0,0-2.1-1.2Z"/><polygon class="cls-47" points="157.3 36.1 189.8 35.1 191 51 188 51 188.6 64.1 191.4 64 191.4 79.9 158.8 80.6 157.3 36.1"/><path class="cls-47" d="M73.6,84.8a84.3,84.3,0,0,1-10.1-.6L61,83.9l.5-48.7,1.6-.8a27,27,0,0,1,5.4-1.9,19.7,19.7,0,0,1,5.5-.7,29.1,29.1,0,0,1,14.2,3.8A29.4,29.4,0,0,1,99.1,45.7a26.7,26.7,0,0,1,4.2,14.6q0,12.3-8.4,18.6C89.5,82.8,82.4,84.8,73.6,84.8Zm4.2-18.6a10.3,10.3,0,0,0,5.6-1.9c1.4-1.3,2.1-3.2,2.1-5.9a6.2,6.2,0,0,0-1.1-3.9,8.1,8.1,0,0,0-3.1-2.7,10.6,10.6,0,0,0-3.5-.9Z"/><polygon class="cls-47" points="98.6 75.1 105.5 37.1 119.3 39.5 112.5 77.5 98.6 75.1"/><path class="cls-47" d="M140,77.1a15.1,15.1,0,0,1-4.1-.6,19,19,0,0,1-8.5-4.5,19.2,19.2,0,0,1-5.2-8.2,18.7,18.7,0,0,1,3.7-18.4A18.1,18.1,0,0,1,134,40a19.6,19.6,0,0,1,5.9-.9h1.3a16.4,16.4,0,0,1,7.1,2.2,16.9,16.9,0,0,1,5.7,5.6l1.4,2.3-9.5,6.7H157l.4,2.4a14.5,14.5,0,0,1-1,7.4,18.1,18.1,0,0,1-4.3,6.4,18.4,18.4,0,0,1-6.7,4A16.1,16.1,0,0,1,140,77.1Zm-.1-24-1.6.2a4.9,4.9,0,0,0-2.9,2.3,4.7,4.7,0,0,0,0,3.7,6.1,6.1,0,0,0,1.6,2.6,4.4,4.4,0,0,0,2,1.1h.8a3.9,3.9,0,0,0,1.5-.2,4.2,4.2,0,0,0,1.8-1.1,5.1,5.1,0,0,0,1.1-1.6,2.4,2.4,0,0,0,.4-1.2V56.2l-1.3-1.7a4.8,4.8,0,0,0-2-1.2A3.2,3.2,0,0,0,139.9,53.1Z"/><polygon class="cls-47" points="157.2 35.9 189.8 34.9 190.9 50.8 187.9 50.8 188.6 63.9 191.3 63.8 191.3 79.7 158.7 80.4 157.2 35.9"/><path class="cls-47" d="M73.5,84.6A84.3,84.3,0,0,1,63.4,84l-2.5-.4L61.4,35l1.6-.8a36.2,36.2,0,0,1,5.4-2,24.4,24.4,0,0,1,5.5-.6,30.1,30.1,0,0,1,14.2,3.7A29.7,29.7,0,0,1,99,45.5,26.2,26.2,0,0,1,103.2,60c0,8.2-2.8,14.5-8.4,18.6S82.3,84.6,73.5,84.6ZM77.7,66a10.3,10.3,0,0,0,5.6-2c1.4-1.2,2.1-3.1,2.1-5.9a6.1,6.1,0,0,0-1.1-3.8,7.7,7.7,0,0,0-3-2.7,8,8,0,0,0-3.6-.9Z"/><polygon class="cls-47" points="98.5 74.9 105.4 36.9 119.2 39.3 112.4 77.3 98.5 74.9"/><path class="cls-47" d="M140,76.8a15.1,15.1,0,0,1-4.2-.5,19.2,19.2,0,0,1-8.5-4.6,19.3,19.3,0,0,1-5.8-17.9,18.9,18.9,0,0,1,4.3-8.6,18.7,18.7,0,0,1,8.1-5.4,19.6,19.6,0,0,1,5.9-.9h1.3a16.4,16.4,0,0,1,7.1,2.2,16.1,16.1,0,0,1,5.7,5.6l1.4,2.2-9.5,6.8h11.1l.4,2.4a14.7,14.7,0,0,1-.9,7.4,18.4,18.4,0,0,1-4.4,6.3,18.7,18.7,0,0,1-6.7,4.1A18.9,18.9,0,0,1,140,76.8Zm-.2-24a4.5,4.5,0,0,0-1.6.3,5.2,5.2,0,0,0-2.9,2.2,4.9,4.9,0,0,0,0,3.8,6.8,6.8,0,0,0,1.6,2.6,4.2,4.2,0,0,0,2,1h.9l1.4-.2a5.4,5.4,0,0,0,1.8-1.1,6.6,6.6,0,0,0,1.2-1.7,2.7,2.7,0,0,0,.3-1.2V56l-1.3-1.7a4.4,4.4,0,0,0-2-1.3Z"/><polygon class="cls-47" points="157.1 35.7 189.7 34.6 190.8 50.6 187.8 50.6 188.5 63.7 191.2 63.5 191.2 79.5 158.6 80.2 157.1 35.7"/><path class="cls-47" d="M73.4,84.4a67.7,67.7,0,0,1-10.1-.7l-2.5-.3.5-48.6,1.6-.8a27.7,27.7,0,0,1,5.4-2,24.4,24.4,0,0,1,5.5-.6A28.7,28.7,0,0,1,88,35.1,29.7,29.7,0,0,1,98.9,45.3a26.2,26.2,0,0,1,4.2,14.5c0,8.2-2.8,14.5-8.4,18.6S82.2,84.4,73.4,84.4Zm4.2-18.7a9.5,9.5,0,0,0,5.6-1.9c1.4-1.2,2.1-3.1,2.1-5.9a5.9,5.9,0,0,0-1.1-3.8,7.7,7.7,0,0,0-3-2.7,8,8,0,0,0-3.6-.9Z"/><polygon class="cls-47" points="98.5 74.7 105.3 36.7 119.2 39.1 112.3 77 98.5 74.7"/><path class="cls-47" d="M139.9,76.6a20.1,20.1,0,0,1-4.2-.5A19.8,19.8,0,0,1,122,63.4a18.3,18.3,0,0,1-.6-9.8,18.9,18.9,0,0,1,4.3-8.6,18.7,18.7,0,0,1,8.1-5.4,19.7,19.7,0,0,1,5.9-1H141a16.4,16.4,0,0,1,7.1,2.2,16.1,16.1,0,0,1,5.7,5.6l1.4,2.2-9.5,6.8h11.1l.4,2.4a13.7,13.7,0,0,1-.9,7.4,18.4,18.4,0,0,1-4.4,6.3,16.4,16.4,0,0,1-6.7,4A16,16,0,0,1,139.9,76.6Zm-.2-24-1.6.3a4.6,4.6,0,0,0-2.8,2.2,4.5,4.5,0,0,0-.1,3.8,5.7,5.7,0,0,0,1.6,2.5,3.7,3.7,0,0,0,2,1.1h.9l1.4-.2a5.4,5.4,0,0,0,1.8-1.1,6.6,6.6,0,0,0,1.2-1.7,2.7,2.7,0,0,0,.3-1.2V55.8L143,54.1a3.7,3.7,0,0,0-2-1.3Z"/><polygon class="cls-47" points="157 35.5 189.6 34.4 190.7 50.3 187.7 50.4 188.4 63.4 191.1 63.3 191.1 79.2 158.5 80 157 35.5"/><path class="cls-47" d="M73.3,84.2a85.7,85.7,0,0,1-10.1-.7l-2.5-.3.5-48.7,1.6-.7a27.7,27.7,0,0,1,5.4-2,24.4,24.4,0,0,1,5.5-.6,28.7,28.7,0,0,1,14.2,3.7A29.7,29.7,0,0,1,98.8,45.1,26.2,26.2,0,0,1,103,59.6c0,8.2-2.8,14.5-8.4,18.6S82.1,84.2,73.3,84.2Zm4.2-18.7c2.5-.2,4.4-.8,5.6-1.9s2.2-3.2,2.2-5.9a6.5,6.5,0,0,0-1.2-3.9,7,7,0,0,0-3-2.6,9.7,9.7,0,0,0-3.6-1Z"/><polygon class="cls-47" points="98.4 74.4 105.2 36.5 119.1 38.9 112.2 76.8 98.4 74.4"/><path class="cls-47" d="M139.8,76.4a20.1,20.1,0,0,1-4.2-.5,18.3,18.3,0,0,1-8.4-4.6,18.8,18.8,0,0,1-5.3-8.2,18.6,18.6,0,0,1,3.7-18.3,18.9,18.9,0,0,1,14-6.4h1.3a15.1,15.1,0,0,1,7.1,2.2,16.6,16.6,0,0,1,5.7,5.5l1.5,2.3-9.6,6.8h11.1l.4,2.4a13.7,13.7,0,0,1-.9,7.4,18.6,18.6,0,0,1-11,10.3A17,17,0,0,1,139.8,76.4Zm-.2-24-1.6.3a4.3,4.3,0,0,0-2.9,6,5.7,5.7,0,0,0,1.6,2.5,3.7,3.7,0,0,0,2,1.1h.9a4,4,0,0,0,1.5-.3,3.7,3.7,0,0,0,1.7-1,8.8,8.8,0,0,0,1.2-1.7,3,3,0,0,0,.3-1.2V55.6l-1.3-1.7a3.7,3.7,0,0,0-2-1.3Z"/><polygon class="cls-47" points="156.9 35.3 189.5 34.2 190.6 50.1 187.6 50.2 188.3 63.2 191 63.1 191 79 158.5 79.8 156.9 35.3"/><path class="cls-47" d="M73.2,83.9a86.8,86.8,0,0,1-10.1-.6L60.7,83l.5-48.7,1.5-.7a27.7,27.7,0,0,1,5.4-2,25.1,25.1,0,0,1,5.5-.6,28.4,28.4,0,0,1,14.2,3.7A29.4,29.4,0,0,1,98.7,44.8a26.7,26.7,0,0,1,4.2,14.6c0,8.2-2.8,14.5-8.4,18.6S82,83.9,73.2,83.9Zm4.3-18.6A9.9,9.9,0,0,0,83,63.4c1.5-1.3,2.2-3.2,2.2-5.9a7.1,7.1,0,0,0-1.1-3.9A7.9,7.9,0,0,0,81,51a9.3,9.3,0,0,0-3.5-1Z"/><polygon class="cls-47" points="98.3 74.2 105.2 36.3 119 38.6 112.1 76.6 98.3 74.2"/><path class="cls-47" d="M139.7,76.2a20.1,20.1,0,0,1-4.2-.5,19.8,19.8,0,0,1-8.4-4.6,19.4,19.4,0,0,1-5.3-8.2,17.9,17.9,0,0,1-.6-9.7,18.8,18.8,0,0,1,4.3-8.7,17.7,17.7,0,0,1,8.1-5.3,17,17,0,0,1,5.9-1h1.3a17.4,17.4,0,0,1,7.2,2.3,16.3,16.3,0,0,1,5.6,5.5l1.5,2.3-9.6,6.8h11.2l.3,2.3a13.5,13.5,0,0,1-.9,7.4,17.5,17.5,0,0,1-4.4,6.4,18,18,0,0,1-6.6,4A17,17,0,0,1,139.7,76.2Zm-.2-24-1.6.3a4.5,4.5,0,0,0-2.8,2.2,4,4,0,0,0,0,3.7,5.1,5.1,0,0,0,1.5,2.6,4.4,4.4,0,0,0,2,1.1h.9a4,4,0,0,0,1.5-.3,4.8,4.8,0,0,0,1.7-1,4.4,4.4,0,0,0,1.2-1.7,3,3,0,0,0,.3-1.2V55.3l-1.3-1.6a3.7,3.7,0,0,0-2-1.3Z"/><polygon class="cls-47" points="156.8 35 189.4 34 190.5 49.9 187.5 49.9 188.2 63 190.9 62.9 190.9 78.8 158.4 79.5 156.8 35"/><path class="cls-47" d="M73.2,83.7a84.3,84.3,0,0,1-10.1-.6l-2.5-.3.5-48.7,1.6-.8A26.2,26.2,0,0,1,68,31.4a25.2,25.2,0,0,1,5.6-.7,29.1,29.1,0,0,1,14.2,3.8A30.1,30.1,0,0,1,98.7,44.6a27.6,27.6,0,0,1,4.2,14.6c0,8.2-2.9,14.4-8.5,18.6S82,83.7,73.2,83.7Zm4.2-18.6a9.9,9.9,0,0,0,5.5-1.9c1.5-1.3,2.2-3.2,2.2-5.9A6.9,6.9,0,0,0,84,53.4a8.1,8.1,0,0,0-3.1-2.7,11.3,11.3,0,0,0-3.5-.9Z"/><polygon class="cls-47" points="98.2 74 105.1 36 118.9 38.4 112 76.4 98.2 74"/><path class="cls-47" d="M139.6,76a15.2,15.2,0,0,1-4.2-.6,18.6,18.6,0,0,1-8.4-4.5,20.4,20.4,0,0,1-5.3-8.2,18.2,18.2,0,0,1-.6-9.8,18.9,18.9,0,0,1,4.3-8.6,18.7,18.7,0,0,1,8.1-5.4,19.6,19.6,0,0,1,5.9-.9h1.3a17.2,17.2,0,0,1,7.2,2.2,17.6,17.6,0,0,1,5.6,5.6l1.5,2.3-9.6,6.7,11.2.2.3,2.3a13.5,13.5,0,0,1-.9,7.4,18.4,18.4,0,0,1-4.4,6.4,18,18,0,0,1-6.6,4A17,17,0,0,1,139.6,76Zm-.2-24-1.6.3a4.5,4.5,0,0,0-2.8,2.2,4.7,4.7,0,0,0,0,3.7,5.1,5.1,0,0,0,1.5,2.6,4.3,4.3,0,0,0,2.1,1.1h.8a3.9,3.9,0,0,0,1.5-.2,3.4,3.4,0,0,0,1.7-1.1,4.2,4.2,0,0,0,1.2-1.6,3,3,0,0,0,.3-1.2V55.1l-1.3-1.7a3.8,3.8,0,0,0-2-1.2A2.7,2.7,0,0,0,139.4,52Z"/><polygon class="cls-47" points="156.8 34.8 189.3 33.8 190.4 49.7 187.5 49.7 188.1 62.8 190.8 62.7 190.8 78.6 158.3 79.3 156.8 34.8"/><path class="cls-47" d="M73.1,83.5A84.3,84.3,0,0,1,63,82.9l-2.5-.4L61,33.9l1.6-.8A27,27,0,0,1,68,31.2a19.3,19.3,0,0,1,5.5-.7,30.1,30.1,0,0,1,14.2,3.7A30.5,30.5,0,0,1,98.6,44.4a26.2,26.2,0,0,1,4.2,14.5c0,8.3-2.9,14.5-8.5,18.7S81.9,83.5,73.1,83.5Zm4.2-18.6c2.4-.3,4.3-.9,5.5-2S85,59.8,85,57a6.8,6.8,0,0,0-1.1-3.8,8.1,8.1,0,0,0-3.1-2.7,9.1,9.1,0,0,0-3.5-.9Z"/><polygon class="cls-47" points="98.1 73.8 105 35.8 118.8 38.2 111.9 76.2 98.1 73.8"/><path class="cls-47" d="M139.5,75.7a15.1,15.1,0,0,1-4.2-.5,19.6,19.6,0,0,1-8.4-4.5,19.3,19.3,0,0,1-5.9-18,20,20,0,0,1,4.3-8.6,19.3,19.3,0,0,1,8.1-5.4,20.1,20.1,0,0,1,5.9-.9h1.3a17.2,17.2,0,0,1,7.2,2.2,16.7,16.7,0,0,1,5.6,5.6l1.5,2.2-9.6,6.8h11.2l.3,2.4a13.6,13.6,0,0,1-.9,7.4,17.1,17.1,0,0,1-4.4,6.4,18.6,18.6,0,0,1-6.6,4A20.2,20.2,0,0,1,139.5,75.7Zm-.1-23.9a5,5,0,0,0-1.7.2,5.3,5.3,0,0,0-2.8,2.2,4.9,4.9,0,0,0,0,3.8,8.1,8.1,0,0,0,1.5,2.6,3.7,3.7,0,0,0,2.1,1h.8l1.5-.2a3.4,3.4,0,0,0,1.7-1.1,4.2,4.2,0,0,0,1.2-1.6,3.4,3.4,0,0,0,.3-1.2V54.9l-1.3-1.7a3.8,3.8,0,0,0-2-1.2A2.5,2.5,0,0,0,139.4,51.8Z"/><polygon class="cls-47" points="156.7 34.6 189.2 33.5 190.3 49.5 187.4 49.5 188 62.6 190.8 62.5 190.8 78.4 158.2 79.1 156.7 34.6"/><path class="cls-47" d="M73,83.3a67.7,67.7,0,0,1-10.1-.7l-2.5-.3.5-48.6,1.6-.8a27.7,27.7,0,0,1,5.4-2,23.8,23.8,0,0,1,5.5-.6A30.1,30.1,0,0,1,87.6,34,30.5,30.5,0,0,1,98.5,44.2a26.2,26.2,0,0,1,4.2,14.5c0,8.2-2.9,14.5-8.4,18.6S81.8,83.3,73,83.3Zm4.2-18.7a9.2,9.2,0,0,0,5.5-1.9c1.5-1.2,2.2-3.1,2.2-5.9A6.6,6.6,0,0,0,83.8,53a8.4,8.4,0,0,0-6.6-3.6Z"/><polygon class="cls-47" points="98 73.6 104.9 35.6 118.7 38 111.9 76 98 73.6"/><path class="cls-47" d="M139.4,75.5a20.9,20.9,0,0,1-4.2-.5,19.4,19.4,0,0,1-8.4-4.6,18.9,18.9,0,0,1-5.2-8.1,18.3,18.3,0,0,1-.6-9.8,18.8,18.8,0,0,1,4.2-8.6,19.2,19.2,0,0,1,14-6.4h1.3a16.4,16.4,0,0,1,7.2,2.2,17.9,17.9,0,0,1,5.7,5.6l1.4,2.2-9.6,6.8h11.2l.4,2.4a14.8,14.8,0,0,1-1,7.4,16.9,16.9,0,0,1-4.3,6.3,17.9,17.9,0,0,1-12.1,4.9Zm-.1-24a4.5,4.5,0,0,0-1.6.3,5.2,5.2,0,0,0-2.9,2.2,4.9,4.9,0,0,0,0,3.8,6.6,6.6,0,0,0,1.5,2.5,3.9,3.9,0,0,0,2.1,1.1h.8l1.5-.2a5.4,5.4,0,0,0,1.8-1.1,4.5,4.5,0,0,0,1.1-1.7,3.8,3.8,0,0,0,.4-1.2V54.7L142.6,53a4.7,4.7,0,0,0-2.1-1.3Z"/><polygon class="cls-47" points="156.6 34.4 189.1 33.3 190.3 49.2 187.3 49.3 187.9 62.3 190.7 62.2 190.7 78.2 158.1 78.9 156.6 34.4"/><path class="cls-47" d="M72.9,83.1a84.2,84.2,0,0,1-10.1-.7l-2.5-.3.5-48.7,1.6-.7a27.7,27.7,0,0,1,5.4-2,24.4,24.4,0,0,1,5.5-.6,29,29,0,0,1,14.2,3.7A30.5,30.5,0,0,1,98.4,44a26.2,26.2,0,0,1,4.2,14.5c0,8.2-2.8,14.5-8.4,18.6S81.7,83.1,72.9,83.1Zm4.2-18.7a9.5,9.5,0,0,0,5.6-1.9c1.4-1.2,2.1-3.2,2.1-5.9a6.4,6.4,0,0,0-1.1-3.9,7.9,7.9,0,0,0-3.1-2.6,8.8,8.8,0,0,0-3.5-1Z"/><polygon class="cls-47" points="97.9 73.3 104.8 35.4 118.6 37.8 111.8 75.7 97.9 73.3"/><path class="cls-47" d="M139.3,75.3a19.9,19.9,0,0,1-4.1-.5,19.2,19.2,0,0,1-8.5-4.6,18.9,18.9,0,0,1-5.2-8.1,18.3,18.3,0,0,1-.6-9.8,17.6,17.6,0,0,1,4.3-8.6,17.3,17.3,0,0,1,8.1-5.4,17,17,0,0,1,5.9-1h1.3a15.1,15.1,0,0,1,7.1,2.2,17.6,17.6,0,0,1,5.7,5.5l1.4,2.3-9.5,6.8h11.1l.4,2.4a14.8,14.8,0,0,1-1,7.4,17.7,17.7,0,0,1-4.3,6.3,17.1,17.1,0,0,1-6.7,4A16.1,16.1,0,0,1,139.3,75.3Zm-.1-24a4.5,4.5,0,0,0-1.6.3,4.4,4.4,0,0,0-2.9,2.2,4.9,4.9,0,0,0,0,3.8,5.7,5.7,0,0,0,1.6,2.5,3.7,3.7,0,0,0,2,1.1h.8a5.8,5.8,0,0,0,3.3-1.3,5.5,5.5,0,0,0,1.1-1.7,2.4,2.4,0,0,0,.4-1.2V54.5l-1.3-1.7a4.1,4.1,0,0,0-2-1.3Z"/><polygon class="cls-47" points="156.5 34.2 189.1 33.1 190.2 49 187.2 49.1 187.9 62.1 190.6 62 190.6 77.9 158 78.7 156.5 34.2"/><path class="cls-47" d="M72.8,82.8a84.3,84.3,0,0,1-10.1-.6l-2.5-.3.5-48.7,1.6-.7a27.7,27.7,0,0,1,5.4-2,24.4,24.4,0,0,1,5.5-.6,29,29,0,0,1,14.2,3.7A29.4,29.4,0,0,1,98.3,43.7a26.7,26.7,0,0,1,4.2,14.6c0,8.2-2.8,14.5-8.4,18.6S81.6,82.8,72.8,82.8ZM77,64.2a10.3,10.3,0,0,0,5.6-1.9c1.4-1.3,2.1-3.2,2.1-5.9a6.4,6.4,0,0,0-1.1-3.9,8.3,8.3,0,0,0-3-2.6,9.7,9.7,0,0,0-3.6-1Z"/><polygon class="cls-47" points="97.8 73.1 104.7 35.2 118.5 37.6 111.7 75.5 97.8 73.1"/><path class="cls-47" d="M139.3,75.1A18.6,18.6,0,0,1,126.6,70a18.6,18.6,0,0,1-5.2-8.2,17.9,17.9,0,0,1-.6-9.7,18.8,18.8,0,0,1,4.3-8.7,17.7,17.7,0,0,1,8.1-5.3,17,17,0,0,1,5.9-1h1.3a15.1,15.1,0,0,1,7.1,2.2,15.8,15.8,0,0,1,5.7,5.5l1.4,2.3L145.1,54h11.1l.4,2.3a15,15,0,0,1-.9,7.5,19.4,19.4,0,0,1-4.4,6.3,18.4,18.4,0,0,1-6.7,4A16,16,0,0,1,139.3,75.1Zm-.2-24a4.5,4.5,0,0,0-1.6.3,4.4,4.4,0,0,0-2.9,2.2,4.7,4.7,0,0,0,0,3.7,5.5,5.5,0,0,0,1.6,2.6,4.4,4.4,0,0,0,2,1.1h.9a3.5,3.5,0,0,0,1.4-.3,5.2,5.2,0,0,0,1.8-1,8.8,8.8,0,0,0,1.2-1.7,3,3,0,0,0,.3-1.2V54.2l-1.3-1.6a3.7,3.7,0,0,0-2-1.3Z"/><polygon class="cls-47" points="156.4 33.9 189 32.9 190.1 48.8 187.1 48.8 187.8 61.9 190.5 61.8 190.5 77.7 157.9 78.5 156.4 33.9"/><path class="cls-47" d="M72.7,82.6A84.3,84.3,0,0,1,62.6,82l-2.5-.3L60.6,33l1.6-.8a35.1,35.1,0,0,1,5.4-1.9,24.3,24.3,0,0,1,5.5-.7,28.8,28.8,0,0,1,14.2,3.8A28.6,28.6,0,0,1,98.2,43.5a26.7,26.7,0,0,1,4.2,14.6q0,12.3-8.4,18.6C88.7,80.6,81.5,82.6,72.7,82.6ZM76.9,64a10.3,10.3,0,0,0,5.6-1.9c1.4-1.3,2.1-3.2,2.1-5.9a6.4,6.4,0,0,0-1.1-3.9,7.5,7.5,0,0,0-3-2.6,9.7,9.7,0,0,0-3.6-1Z"/><polygon class="cls-47" points="97.8 72.9 104.6 34.9 118.5 37.3 111.6 75.3 97.8 72.9"/><path class="cls-47" d="M139.2,74.9a15.2,15.2,0,0,1-4.2-.6,18.1,18.1,0,0,1-8.4-4.5,18.5,18.5,0,0,1-5.3-8.2,18.2,18.2,0,0,1-.6-9.8,18.9,18.9,0,0,1,4.3-8.6,18.7,18.7,0,0,1,8.1-5.4,19.6,19.6,0,0,1,5.9-.9h1.3a16.5,16.5,0,0,1,7.1,2.3,15.8,15.8,0,0,1,5.7,5.5l1.4,2.3L145,53.7l11.1.2.4,2.3a13.5,13.5,0,0,1-.9,7.4,19.8,19.8,0,0,1-4.4,6.4,17.6,17.6,0,0,1-6.7,4A16,16,0,0,1,139.2,74.9Zm-.2-24-1.6.3a4,4,0,0,0-2.8,2.2,4.3,4.3,0,0,0-.1,3.7,6.1,6.1,0,0,0,1.6,2.6,4.4,4.4,0,0,0,2,1.1h.9a3.5,3.5,0,0,0,1.4-.3,4.2,4.2,0,0,0,1.8-1.1,8.3,8.3,0,0,0,1.2-1.6,3,3,0,0,0,.3-1.2V54l-1.3-1.7a4.3,4.3,0,0,0-2-1.2A3,3,0,0,0,139,50.9Z"/><polygon class="cls-47" points="156.3 33.7 188.9 32.7 190 48.6 187 48.6 187.7 61.7 190.4 61.6 190.4 77.5 157.8 78.2 156.3 33.7"/><path class="cls-47" d="M72.6,82.4a85.5,85.5,0,0,1-10.1-.6L60,81.5l.5-48.7,1.6-.8a27,27,0,0,1,5.4-1.9,19.7,19.7,0,0,1,5.5-.7A30.1,30.1,0,0,1,98.1,43.3a26.4,26.4,0,0,1,4.2,14.5c0,8.3-2.8,14.5-8.4,18.7S81.4,82.4,72.6,82.4Zm4.2-18.6a10.8,10.8,0,0,0,5.6-1.9c1.4-1.3,2.2-3.2,2.2-6a6.2,6.2,0,0,0-1.2-3.8,7.2,7.2,0,0,0-3-2.7,9.5,9.5,0,0,0-3.6-.9Z"/><polygon class="cls-47" points="97.7 72.7 104.5 34.7 118.4 37.1 111.5 75.1 97.7 72.7"/><path class="cls-47" d="M139.1,74.6a15.1,15.1,0,0,1-4.2-.5,19.1,19.1,0,0,1-8.4-4.5,19.4,19.4,0,0,1-5.3-8.2,18.2,18.2,0,0,1-.6-9.8,18.9,18.9,0,0,1,4.3-8.6,18.7,18.7,0,0,1,8.1-5.4,19.6,19.6,0,0,1,5.9-.9h1.3a16.4,16.4,0,0,1,7.1,2.2,16.1,16.1,0,0,1,5.7,5.6l1.5,2.3-9.6,6.7H156l.4,2.4a13.6,13.6,0,0,1-.9,7.4,18.4,18.4,0,0,1-4.4,6.4,19.5,19.5,0,0,1-6.6,4A16.8,16.8,0,0,1,139.1,74.6Zm-.2-23.9-1.6.2a5.3,5.3,0,0,0-2.8,2.2,4.5,4.5,0,0,0-.1,3.8,6.1,6.1,0,0,0,1.6,2.6,4.4,4.4,0,0,0,2,1.1h.9a4,4,0,0,0,3.2-1.3,8.3,8.3,0,0,0,1.2-1.6,3,3,0,0,0,.3-1.2V53.8l-1.3-1.7a4.3,4.3,0,0,0-2-1.2A2.7,2.7,0,0,0,138.9,50.7Z"/><polygon class="cls-47" points="156.2 33.5 188.8 32.5 189.9 48.4 186.9 48.4 187.6 61.5 190.3 61.4 190.3 77.3 157.8 78 156.2 33.5"/><path class="cls-47" d="M72.5,82.2a69.5,69.5,0,0,1-10.1-.7L60,81.2l.5-48.6,1.5-.8a36.2,36.2,0,0,1,5.4-2,25.1,25.1,0,0,1,5.5-.6A30.1,30.1,0,0,1,98,43.1a26.2,26.2,0,0,1,4.2,14.5c0,8.2-2.8,14.5-8.4,18.6S81.3,82.2,72.5,82.2Zm4.3-18.6c2.4-.3,4.3-.9,5.5-2s2.2-3.1,2.2-5.9a6.8,6.8,0,0,0-1.1-3.8,7.4,7.4,0,0,0-3.1-2.7,7.6,7.6,0,0,0-3.5-.9Z"/><polygon class="cls-47" points="97.6 72.5 104.5 34.5 118.3 36.9 111.4 74.9 97.6 72.5"/><path class="cls-47" d="M139,74.4a15.1,15.1,0,0,1-4.2-.5,18.8,18.8,0,0,1-8.4-4.6,19.1,19.1,0,0,1-5.3-8.1,18.3,18.3,0,0,1-.6-9.8,18.9,18.9,0,0,1,4.3-8.6,18.7,18.7,0,0,1,8.1-5.4,19.6,19.6,0,0,1,5.9-.9h1.3a17.2,17.2,0,0,1,7.2,2.2,16.7,16.7,0,0,1,5.6,5.6l1.5,2.2-9.6,6.8H156l.3,2.4a13.7,13.7,0,0,1-.9,7.4,17.1,17.1,0,0,1-4.4,6.3,16.8,16.8,0,0,1-6.6,4A17,17,0,0,1,139,74.4Zm-.2-24-1.6.3a5.3,5.3,0,0,0-2.8,2.2,4.2,4.2,0,0,0,0,3.8,5.6,5.6,0,0,0,1.5,2.6,4.2,4.2,0,0,0,2,1h.9l1.5-.2a5,5,0,0,0,1.7-1.1,3.8,3.8,0,0,0,1.2-1.7,2.7,2.7,0,0,0,.3-1.2V53.6l-1.3-1.7a4.4,4.4,0,0,0-2-1.3Z"/><polygon class="cls-47" points="156.1 33.3 188.7 32.2 189.8 48.2 186.8 48.2 187.5 61.2 190.2 61.1 190.2 77.1 157.7 77.8 156.1 33.3"/><path class="cls-47" d="M72.5,82a67.7,67.7,0,0,1-10.1-.7L59.9,81l.5-48.7,1.6-.7a26.9,26.9,0,0,1,5.3-2,25.3,25.3,0,0,1,5.6-.6,29,29,0,0,1,14.2,3.7A31.3,31.3,0,0,1,98,42.9a27,27,0,0,1,4.2,14.5c0,8.2-2.9,14.5-8.5,18.6S81.3,82,72.5,82Zm4.2-18.7a9.2,9.2,0,0,0,5.5-1.9c1.5-1.2,2.2-3.2,2.2-5.9a7.1,7.1,0,0,0-1.1-3.9A7.9,7.9,0,0,0,80.2,49a9.3,9.3,0,0,0-3.5-1Z"/><polygon class="cls-47" points="97.5 72.3 104.4 34.3 118.2 36.7 111.3 74.6 97.5 72.3"/><path class="cls-47" d="M138.9,74.2a20.1,20.1,0,0,1-4.2-.5,18.8,18.8,0,0,1-8.4-4.6A20.1,20.1,0,0,1,121,61a18.3,18.3,0,0,1-.6-9.8,18.9,18.9,0,0,1,4.3-8.6,18.7,18.7,0,0,1,8.1-5.4,19.7,19.7,0,0,1,5.9-1H140a15.9,15.9,0,0,1,7.2,2.2,16.7,16.7,0,0,1,5.6,5.6l1.5,2.2-9.6,6.8h11.2l.3,2.4a13.7,13.7,0,0,1-.9,7.4,18,18,0,0,1-4.4,6.3,16.8,16.8,0,0,1-6.6,4A17,17,0,0,1,138.9,74.2Zm-.2-24-1.6.3a5.3,5.3,0,0,0-2.8,2.2,4.9,4.9,0,0,0,0,3.8,4.8,4.8,0,0,0,1.5,2.5,3.6,3.6,0,0,0,2.1,1.1h.8l1.5-.2a4.2,4.2,0,0,0,1.7-1.1,3.8,3.8,0,0,0,1.2-1.7,3,3,0,0,0,.3-1.2V53.4L142,51.7a3.4,3.4,0,0,0-2-1.3Z"/><polygon class="cls-47" points="156.1 33.1 188.6 32 189.7 47.9 186.8 48 187.4 61 190.1 60.9 190.1 76.8 157.6 77.6 156.1 33.1"/><path class="cls-48" d="M72.5,82a67.7,67.7,0,0,1-10.1-.7,2.7,2.7,0,0,1-2.5-2.8l.4-44.4A3,3,0,0,1,62,31.6a26.9,26.9,0,0,1,5.3-2,25.3,25.3,0,0,1,5.6-.6,29,29,0,0,1,14.2,3.7A31.3,31.3,0,0,1,98,42.9a27,27,0,0,1,4.2,14.5c0,8.2-2.9,14.5-8.5,18.6S81.3,82,72.5,82Zm4.2-18.7a9.2,9.2,0,0,0,5.5-1.9c1.5-1.2,2.2-3.2,2.2-5.9a7.1,7.1,0,0,0-1.1-3.9A7.9,7.9,0,0,0,80.2,49a9.3,9.3,0,0,0-3.5-1Z"/><path class="cls-48" d="M109.1,74.2h-.5l-8.3-1.5A2.8,2.8,0,0,1,98,69.5L103.9,37a2.8,2.8,0,0,1,2.7-2.3h.5l8.3,1.4a2.5,2.5,0,0,1,1.8,1.2,2.6,2.6,0,0,1,.5,2.1l-5.9,32.4A2.7,2.7,0,0,1,109.1,74.2Z"/><path class="cls-48" d="M138.9,74.2a20.1,20.1,0,0,1-4.2-.5,18.8,18.8,0,0,1-8.4-4.6A20.1,20.1,0,0,1,121,61a18.3,18.3,0,0,1-.6-9.8,18.9,18.9,0,0,1,4.3-8.6,18.7,18.7,0,0,1,8.1-5.4,19.7,19.7,0,0,1,5.9-1H140a15.9,15.9,0,0,1,7.2,2.2,16.7,16.7,0,0,1,5.6,5.6,2.8,2.8,0,0,1-.7,3.8l-6.2,4.4a3.3,3.3,0,0,1-1.6.5,3,3,0,0,1-2.3-1.1,3.4,3.4,0,0,0-2-1.3l-1.3-.2-1.6.3a5.3,5.3,0,0,0-2.8,2.2,4.9,4.9,0,0,0,0,3.8,4.8,4.8,0,0,0,1.5,2.5,3.6,3.6,0,0,0,2.1,1.1h.8l1.5-.2a4.2,4.2,0,0,0,1.7-1.1,3.8,3.8,0,0,0,1.2-1.7,3,3,0,0,0,.3-1.2,3,3,0,0,1,.8-2,2.8,2.8,0,0,1,2-.9h7.3a2.7,2.7,0,0,1,2.7,2.4,13.7,13.7,0,0,1-.9,7.4,18,18,0,0,1-4.4,6.3,16.8,16.8,0,0,1-6.6,4A17,17,0,0,1,138.9,74.2Z"/><path class="cls-48" d="M160.3,77.5a2.8,2.8,0,0,1-2.8-2.7l-1.3-38.9a2.4,2.4,0,0,1,.7-2,2.5,2.5,0,0,1,2-.9l27.1-.9a2.8,2.8,0,0,1,2.8,2.6l.7,10.3a2.8,2.8,0,0,1-.7,2.1,3.1,3.1,0,0,1-2.1.9h-.1a3,3,0,0,1,.2,1l.5,10.2a2.7,2.7,0,0,1-.6,1.9h.6a2.8,2.8,0,0,1,2,.8,3,3,0,0,1,.8,2V74.1a2.8,2.8,0,0,1-2.7,2.8Z"/><path class="cls-49" d="M72.5,80.7a82.6,82.6,0,0,1-10-.6l-1.3-.2.4-46.7.9-.5a31.4,31.4,0,0,1,5.1-1.8,22.6,22.6,0,0,1,5.3-.6,28.3,28.3,0,0,1,13.5,3.5,29.1,29.1,0,0,1,10.5,9.8,25.6,25.6,0,0,1,4,13.8c0,7.8-2.7,13.7-7.9,17.6S81,80.7,72.5,80.7Zm2.9-16c3.4-.1,6-.9,7.6-2.3s2.7-3.8,2.7-6.9a7.8,7.8,0,0,0-1.4-4.6,9.2,9.2,0,0,0-3.5-3,9.5,9.5,0,0,0-4.6-1.1h-.8Z"/><polygon class="cls-49" points="99 71.2 105.4 35.8 116.7 37.7 110.3 73.2 99 71.2"/><path class="cls-49" d="M138.9,72.9a13.1,13.1,0,0,1-3.9-.5,17,17,0,0,1-7.8-4.2,18.4,18.4,0,0,1-5-7.6,17,17,0,0,1-.5-9.2,17.5,17.5,0,0,1,11.5-13,17.6,17.6,0,0,1,5.5-.9h1.2a14.1,14.1,0,0,1,6.6,2,16.1,16.1,0,0,1,5.3,5.1l.7,1.3-8.6,6.1-.9-1.2a4.6,4.6,0,0,0-2.6-1.7,4.7,4.7,0,0,0-1.7-.3,7.9,7.9,0,0,0-2,.4,5.9,5.9,0,0,0-3.5,2.8,5.6,5.6,0,0,0-.1,4.8A6.5,6.5,0,0,0,135,60a5.5,5.5,0,0,0,2.6,1.4h1.1a6.3,6.3,0,0,0,1.9-.3,5.5,5.5,0,0,0,2.2-1.4,6.9,6.9,0,0,0,1.5-2.1,4.5,4.5,0,0,0,.4-1.7V54.4h10.1l.2,1.3a13,13,0,0,1-.9,6.7,16.7,16.7,0,0,1-4,5.9,16.5,16.5,0,0,1-6.2,3.7A14.5,14.5,0,0,1,138.9,72.9Z"/><polygon class="cls-49" points="157.4 34.3 187.4 33.3 188.4 46.7 171 46.9 171.1 47.8 185.5 47.5 186.1 60.8 171.8 61.1 171.9 62.9 188.9 62.3 188.9 75.6 158.8 76.3 157.4 34.3"/><text class="cls-50" transform="translate(62.2 78.7) scale(1.34 1.46)">D</text><text class="cls-51" transform="translate(100.4 69.9) rotate(9.8) scale(1.04)">I</text><text class="cls-52" transform="translate(128.8 75.2) rotate(-18.4)">C</text><text class="cls-53" transform="translate(158.5 74.7) scale(1.22)">E</text><g class="cls-54"><path class="cls-55" d="M85.7,35.2a26.5,26.5,0,0,1,9.9,9.2,23.5,23.5,0,0,1,3.7,13c0,7.3-2.4,12.8-7.2,16.4s-11.4,5.4-19.6,5.4a79.3,79.3,0,0,1-9.8-.7l.5-44.4A21.4,21.4,0,0,1,68,32.4a18.8,18.8,0,0,1,4.9-.6A25.8,25.8,0,0,1,85.7,35.2Zm1.5,20.3a8.9,8.9,0,0,0-1.6-5.4,10.4,10.4,0,0,0-4.2-3.6,10.8,10.8,0,0,0-5.2-1.3,7.5,7.5,0,0,0-2.3.3V66.2C82.7,66.4,87.2,62.9,87.2,55.5Z"/><path class="cls-56" d="M106.6,37.5l8.3,1.5-5.8,32.4L100.8,70Z"/><path class="cls-57" d="M135.4,71a16.6,16.6,0,0,1-11.7-10.9,15.7,15.7,0,0,1-.5-8.3,16.6,16.6,0,0,1,3.6-7.4,16,16,0,0,1,6.9-4.5,14.1,14.1,0,0,1,6.1-.8,13.1,13.1,0,0,1,6,1.8,15,15,0,0,1,4.7,4.7L144.3,50a7.1,7.1,0,0,0-3.4-2.3,8.4,8.4,0,0,0-4.7.1,8.2,8.2,0,0,0-4.4,3.5,7.5,7.5,0,0,0-.2,6.1,8.7,8.7,0,0,0,2.3,3.7,8,8,0,0,0,3.4,1.8,8.2,8.2,0,0,0,3.8-.3,6.2,6.2,0,0,0,2.8-1.7,8.7,8.7,0,0,0,1.8-2.6,4.5,4.5,0,0,0,.5-2.4h7.2a11.1,11.1,0,0,1-.7,5.9,14.9,14.9,0,0,1-3.7,5.4,16.2,16.2,0,0,1-5.6,3.4A15.5,15.5,0,0,1,135.4,71Z"/><path class="cls-58" d="M187.3,63.8V74.1l-27,.6L159,35.8l27-.9.7,10.3-17.3.2.2,4,14.4-.3.5,10.2-14.3.3.3,4.9Z"/></g></g></g></g></svg>